<svg width="155" height="166" viewBox="0 0 155 166" fill="none" xmlns="http://www.w3.org/2000/svg">
<mask id="path-1-outside-1_6_30" maskUnits="userSpaceOnUse" x="13.1776" y="12.3344" width="123" height="40" fill="black">
<rect fill="white" x="13.1776" y="12.3344" width="123" height="40"/>
<path d="M40.4682 24.7708C39.8811 25.0223 39.2312 25.1481 38.5184 25.1481C38.3087 25.1481 37.9943 25.1272 37.575 25.0852C37.1976 25.0433 36.7783 25.0014 36.317 24.9595C35.8558 24.8756 35.3946 24.8127 34.9333 24.7708C34.514 24.6869 34.1995 24.645 33.9899 24.645C32.6481 24.645 31.3482 24.8337 30.0903 25.211C30.3419 26.8044 30.5516 28.3558 30.7193 29.8653C30.887 31.3749 31.0338 32.8005 31.1596 34.1423C31.2853 35.4421 31.3692 36.6372 31.4111 37.7274C31.4531 38.7756 31.474 39.6771 31.474 40.4319C31.474 42.3188 31.4531 43.9541 31.4111 45.3378C31.4111 46.6796 31.3063 47.8117 31.0967 48.7342C30.887 49.6147 30.5516 50.2646 30.0903 50.684C29.6291 51.1033 28.9582 51.3129 28.0776 51.3129C27.239 51.3129 26.6101 51.1033 26.1908 50.684C25.8134 50.2227 25.5408 49.6986 25.3731 49.1115C25.2473 48.4826 25.1844 47.8327 25.1844 47.1618C25.2264 46.4909 25.2473 45.9248 25.2473 45.4636C25.2473 44.6669 25.3102 43.9541 25.436 43.3251C25.5618 42.6542 25.6247 42.0253 25.6247 41.4382C25.6247 41.1447 25.5408 40.0964 25.3731 38.2934C25.2054 36.4485 25.1215 34.1423 25.1215 31.3749C25.1215 30.4524 25.0167 29.5509 24.8071 28.6703C24.6393 27.7478 24.4506 26.8673 24.241 26.0287L20.5301 26.2803C19.0206 26.4061 17.9723 26.6367 17.3853 26.9721C16.5048 26.9721 15.75 26.7205 15.1211 26.2174C14.4921 25.7142 14.1776 25.0643 14.1776 24.2676C14.1776 23.4709 14.534 22.5904 15.2468 21.626C15.4565 21.584 16.3999 21.4373 18.0772 21.1857C19.7544 20.8922 22.1654 20.4519 25.3102 19.8649L28.455 19.4875C29.4614 19.3617 30.4258 19.2988 31.3482 19.2988H32.2917L39.7134 19.802C40.594 20.3051 41.0342 21.2486 41.0342 22.6323C41.0342 23.387 40.8456 24.0999 40.4682 24.7708Z"/>
<path d="M78.7201 45.4743C78.5943 45.6839 78.3637 45.8726 78.0283 46.0403C77.6928 46.1661 77.3364 46.271 76.959 46.3548C76.6236 46.3968 76.2881 46.4387 75.9527 46.4806C75.6592 46.5225 75.4915 46.5645 75.4495 46.6064C74.9044 46.6483 74.2755 46.6903 73.5626 46.7322C72.8498 46.7741 72.0112 46.837 71.0468 46.9209C70.921 46.879 70.7533 46.858 70.5436 46.858C70.3759 46.858 70.1243 46.8999 69.7889 46.9838C69.4534 47.0676 69.1809 47.1096 68.9712 47.1096C67.5875 47.1096 66.8957 46.3129 66.8957 44.7195C66.8957 43.5035 67.273 42.6649 68.0278 42.2037L70.6694 41.3231C70.6694 40.191 70.7952 38.5767 71.0468 36.4801C71.0049 36.2705 70.9629 36.0399 70.921 35.7883C70.921 35.4948 70.921 35.1803 70.921 34.8448C70.921 33.3773 70.9629 32.2451 71.0468 31.4485C71.1307 30.6518 71.1726 30.2115 71.1726 30.1276C71.1726 29.7503 71.1516 29.331 71.1097 28.8697C71.1097 28.3665 71.0678 27.7166 70.9839 26.9199C70.942 26.0813 70.8581 25.054 70.7323 23.838C70.6485 22.622 70.5436 21.1335 70.4178 19.3724L68.2165 19.0579C67.5875 18.0516 67.273 17.1501 67.273 16.3534C67.273 15.8922 67.3359 15.5148 67.4617 15.2213C67.5875 14.8858 67.8181 14.6133 68.1536 14.4036C68.531 14.194 69.0341 14.0472 69.6631 13.9633C70.334 13.8795 71.1936 13.8376 72.2418 13.8376C72.7869 13.8376 73.2901 13.8795 73.7513 13.9633C74.2126 14.0472 74.6109 14.1311 74.9464 14.2149C75.9527 14.2149 76.7703 14.2569 77.3993 14.3407C78.0283 14.3827 78.4895 14.5084 78.783 14.7181C79.1185 14.8858 79.3281 15.1374 79.412 15.4729C79.5378 15.7664 79.6007 16.1647 79.6007 16.6679C79.6007 17.7161 79.1394 18.6805 78.217 19.5611C78.0492 19.603 77.2945 19.624 75.9527 19.624C75.9946 20.253 76.0366 20.7981 76.0785 21.2593C76.1204 21.7205 76.1624 22.3285 76.2043 23.0833C76.2881 23.7961 76.351 24.7605 76.393 25.9765C76.4349 27.1506 76.4768 28.7649 76.5188 30.8195C76.5188 31.7839 76.4978 32.6225 76.4559 33.3353C76.4559 34.0062 76.4559 34.6142 76.4559 35.1593C76.4559 36.2495 76.4768 36.8575 76.5188 36.9833L76.2672 41.1345C77.4832 41.3022 78.3008 41.5957 78.7201 42.015C79.1814 42.4343 79.412 43.0633 79.412 43.9019C79.412 44.4889 79.1814 45.013 78.7201 45.4743Z"/>
<path d="M135.241 38.4299C135.115 38.9331 134.801 39.5411 134.297 40.2539C133.836 40.9667 133.249 41.7005 132.536 42.4553C131.824 43.1681 131.048 43.818 130.209 44.405C129.413 44.9921 128.637 45.4114 127.882 45.663C125.702 46.6274 123.249 47.1096 120.523 47.1096C119.643 47.1096 118.867 47.0886 118.196 47.0467C117.567 47.0048 116.938 46.879 116.309 46.6693C115.68 46.4597 115.051 46.1242 114.422 45.663C113.793 45.2017 113.081 44.5308 112.284 43.6503C111.403 42.7278 110.711 41.8263 110.208 40.9458C109.705 40.0233 109.328 39.1427 109.076 38.3041C108.825 37.4655 108.657 36.6688 108.573 35.9141C108.489 35.1174 108.447 34.4046 108.447 33.7756C108.447 32.3919 108.615 30.7566 108.95 28.8697C109.286 26.9828 110.187 24.6766 111.655 21.9511C112.2 20.9448 112.619 20.1481 112.913 19.5611C113.206 18.9741 113.374 18.5757 113.416 18.3661L117.316 15.976C118.657 15.1793 119.936 14.5504 121.152 14.0891C122.368 13.586 123.71 13.3344 125.178 13.3344C125.597 13.3344 126.226 13.3344 127.064 13.3344C127.903 13.3344 128.721 13.4392 129.517 13.6489C130.356 13.8166 131.09 14.152 131.719 14.6552C132.348 15.1164 132.662 15.8083 132.662 16.7308C132.662 18.2822 131.74 19.1837 129.895 19.4353C129.937 19.4353 129.811 19.4143 129.517 19.3724C129.224 19.3305 128.826 19.2885 128.322 19.2466C127.819 19.2047 127.253 19.1628 126.624 19.1208C125.995 19.0789 125.366 19.0579 124.737 19.0579C123.647 19.0579 122.536 19.3724 121.404 20.0014C120.314 20.5884 118.972 21.6157 117.378 23.0833C116.54 24.8444 115.911 26.2281 115.492 27.2344C115.114 28.1988 114.926 28.8488 114.926 29.1842C114.464 30.0228 114.234 31.2598 114.234 32.8951C114.234 35.9141 114.779 38.0945 115.869 39.4363C116.959 40.7361 118.448 41.386 120.335 41.386C121.551 41.386 123.437 41.0506 125.995 40.3797C127.547 39.4572 128.888 37.9896 130.021 35.977C130.733 35.2642 131.467 34.9077 132.222 34.9077C133.019 34.9077 133.731 35.2222 134.36 35.8512C134.989 36.4801 135.304 37.193 135.304 37.9896C135.304 38.0735 135.283 38.1574 135.241 38.2412C135.241 38.2832 135.241 38.3461 135.241 38.4299Z"/>
</mask>
<path d="M40.4682 24.7708C39.8811 25.0223 39.2312 25.1481 38.5184 25.1481C38.3087 25.1481 37.9943 25.1272 37.575 25.0852C37.1976 25.0433 36.7783 25.0014 36.317 24.9595C35.8558 24.8756 35.3946 24.8127 34.9333 24.7708C34.514 24.6869 34.1995 24.645 33.9899 24.645C32.6481 24.645 31.3482 24.8337 30.0903 25.211C30.3419 26.8044 30.5516 28.3558 30.7193 29.8653C30.887 31.3749 31.0338 32.8005 31.1596 34.1423C31.2853 35.4421 31.3692 36.6372 31.4111 37.7274C31.4531 38.7756 31.474 39.6771 31.474 40.4319C31.474 42.3188 31.4531 43.9541 31.4111 45.3378C31.4111 46.6796 31.3063 47.8117 31.0967 48.7342C30.887 49.6147 30.5516 50.2646 30.0903 50.684C29.6291 51.1033 28.9582 51.3129 28.0776 51.3129C27.239 51.3129 26.6101 51.1033 26.1908 50.684C25.8134 50.2227 25.5408 49.6986 25.3731 49.1115C25.2473 48.4826 25.1844 47.8327 25.1844 47.1618C25.2264 46.4909 25.2473 45.9248 25.2473 45.4636C25.2473 44.6669 25.3102 43.9541 25.436 43.3251C25.5618 42.6542 25.6247 42.0253 25.6247 41.4382C25.6247 41.1447 25.5408 40.0964 25.3731 38.2934C25.2054 36.4485 25.1215 34.1423 25.1215 31.3749C25.1215 30.4524 25.0167 29.5509 24.8071 28.6703C24.6393 27.7478 24.4506 26.8673 24.241 26.0287L20.5301 26.2803C19.0206 26.4061 17.9723 26.6367 17.3853 26.9721C16.5048 26.9721 15.75 26.7205 15.1211 26.2174C14.4921 25.7142 14.1776 25.0643 14.1776 24.2676C14.1776 23.4709 14.534 22.5904 15.2468 21.626C15.4565 21.584 16.3999 21.4373 18.0772 21.1857C19.7544 20.8922 22.1654 20.4519 25.3102 19.8649L28.455 19.4875C29.4614 19.3617 30.4258 19.2988 31.3482 19.2988H32.2917L39.7134 19.802C40.594 20.3051 41.0342 21.2486 41.0342 22.6323C41.0342 23.387 40.8456 24.0999 40.4682 24.7708Z" fill="#5AAB79"/>
<path d="M78.7201 45.4743C78.5943 45.6839 78.3637 45.8726 78.0283 46.0403C77.6928 46.1661 77.3364 46.271 76.959 46.3548C76.6236 46.3968 76.2881 46.4387 75.9527 46.4806C75.6592 46.5225 75.4915 46.5645 75.4495 46.6064C74.9044 46.6483 74.2755 46.6903 73.5626 46.7322C72.8498 46.7741 72.0112 46.837 71.0468 46.9209C70.921 46.879 70.7533 46.858 70.5436 46.858C70.3759 46.858 70.1243 46.8999 69.7889 46.9838C69.4534 47.0676 69.1809 47.1096 68.9712 47.1096C67.5875 47.1096 66.8957 46.3129 66.8957 44.7195C66.8957 43.5035 67.273 42.6649 68.0278 42.2037L70.6694 41.3231C70.6694 40.191 70.7952 38.5767 71.0468 36.4801C71.0049 36.2705 70.9629 36.0399 70.921 35.7883C70.921 35.4948 70.921 35.1803 70.921 34.8448C70.921 33.3773 70.9629 32.2451 71.0468 31.4485C71.1307 30.6518 71.1726 30.2115 71.1726 30.1276C71.1726 29.7503 71.1516 29.331 71.1097 28.8697C71.1097 28.3665 71.0678 27.7166 70.9839 26.9199C70.942 26.0813 70.8581 25.054 70.7323 23.838C70.6485 22.622 70.5436 21.1335 70.4178 19.3724L68.2165 19.0579C67.5875 18.0516 67.273 17.1501 67.273 16.3534C67.273 15.8922 67.3359 15.5148 67.4617 15.2213C67.5875 14.8858 67.8181 14.6133 68.1536 14.4036C68.531 14.194 69.0341 14.0472 69.6631 13.9633C70.334 13.8795 71.1936 13.8376 72.2418 13.8376C72.7869 13.8376 73.2901 13.8795 73.7513 13.9633C74.2126 14.0472 74.6109 14.1311 74.9464 14.2149C75.9527 14.2149 76.7703 14.2569 77.3993 14.3407C78.0283 14.3827 78.4895 14.5084 78.783 14.7181C79.1185 14.8858 79.3281 15.1374 79.412 15.4729C79.5378 15.7664 79.6007 16.1647 79.6007 16.6679C79.6007 17.7161 79.1394 18.6805 78.217 19.5611C78.0492 19.603 77.2945 19.624 75.9527 19.624C75.9946 20.253 76.0366 20.7981 76.0785 21.2593C76.1204 21.7205 76.1624 22.3285 76.2043 23.0833C76.2881 23.7961 76.351 24.7605 76.393 25.9765C76.4349 27.1506 76.4768 28.7649 76.5188 30.8195C76.5188 31.7839 76.4978 32.6225 76.4559 33.3353C76.4559 34.0062 76.4559 34.6142 76.4559 35.1593C76.4559 36.2495 76.4768 36.8575 76.5188 36.9833L76.2672 41.1345C77.4832 41.3022 78.3008 41.5957 78.7201 42.015C79.1814 42.4343 79.412 43.0633 79.412 43.9019C79.412 44.4889 79.1814 45.013 78.7201 45.4743Z" fill="#5AAB79"/>
<path d="M135.241 38.4299C135.115 38.9331 134.801 39.5411 134.297 40.2539C133.836 40.9667 133.249 41.7005 132.536 42.4553C131.824 43.1681 131.048 43.818 130.209 44.405C129.413 44.9921 128.637 45.4114 127.882 45.663C125.702 46.6274 123.249 47.1096 120.523 47.1096C119.643 47.1096 118.867 47.0886 118.196 47.0467C117.567 47.0048 116.938 46.879 116.309 46.6693C115.68 46.4597 115.051 46.1242 114.422 45.663C113.793 45.2017 113.081 44.5308 112.284 43.6503C111.403 42.7278 110.711 41.8263 110.208 40.9458C109.705 40.0233 109.328 39.1427 109.076 38.3041C108.825 37.4655 108.657 36.6688 108.573 35.9141C108.489 35.1174 108.447 34.4046 108.447 33.7756C108.447 32.3919 108.615 30.7566 108.95 28.8697C109.286 26.9828 110.187 24.6766 111.655 21.9511C112.2 20.9448 112.619 20.1481 112.913 19.5611C113.206 18.9741 113.374 18.5757 113.416 18.3661L117.316 15.976C118.657 15.1793 119.936 14.5504 121.152 14.0891C122.368 13.586 123.71 13.3344 125.178 13.3344C125.597 13.3344 126.226 13.3344 127.064 13.3344C127.903 13.3344 128.721 13.4392 129.517 13.6489C130.356 13.8166 131.09 14.152 131.719 14.6552C132.348 15.1164 132.662 15.8083 132.662 16.7308C132.662 18.2822 131.74 19.1837 129.895 19.4353C129.937 19.4353 129.811 19.4143 129.517 19.3724C129.224 19.3305 128.826 19.2885 128.322 19.2466C127.819 19.2047 127.253 19.1628 126.624 19.1208C125.995 19.0789 125.366 19.0579 124.737 19.0579C123.647 19.0579 122.536 19.3724 121.404 20.0014C120.314 20.5884 118.972 21.6157 117.378 23.0833C116.54 24.8444 115.911 26.2281 115.492 27.2344C115.114 28.1988 114.926 28.8488 114.926 29.1842C114.464 30.0228 114.234 31.2598 114.234 32.8951C114.234 35.9141 114.779 38.0945 115.869 39.4363C116.959 40.7361 118.448 41.386 120.335 41.386C121.551 41.386 123.437 41.0506 125.995 40.3797C127.547 39.4572 128.888 37.9896 130.021 35.977C130.733 35.2642 131.467 34.9077 132.222 34.9077C133.019 34.9077 133.731 35.2222 134.36 35.8512C134.989 36.4801 135.304 37.193 135.304 37.9896C135.304 38.0735 135.283 38.1574 135.241 38.2412C135.241 38.2832 135.241 38.3461 135.241 38.4299Z" fill="#5AAB79"/>
<path d="M40.4682 24.7708C39.8811 25.0223 39.2312 25.1481 38.5184 25.1481C38.3087 25.1481 37.9943 25.1272 37.575 25.0852C37.1976 25.0433 36.7783 25.0014 36.317 24.9595C35.8558 24.8756 35.3946 24.8127 34.9333 24.7708C34.514 24.6869 34.1995 24.645 33.9899 24.645C32.6481 24.645 31.3482 24.8337 30.0903 25.211C30.3419 26.8044 30.5516 28.3558 30.7193 29.8653C30.887 31.3749 31.0338 32.8005 31.1596 34.1423C31.2853 35.4421 31.3692 36.6372 31.4111 37.7274C31.4531 38.7756 31.474 39.6771 31.474 40.4319C31.474 42.3188 31.4531 43.9541 31.4111 45.3378C31.4111 46.6796 31.3063 47.8117 31.0967 48.7342C30.887 49.6147 30.5516 50.2646 30.0903 50.684C29.6291 51.1033 28.9582 51.3129 28.0776 51.3129C27.239 51.3129 26.6101 51.1033 26.1908 50.684C25.8134 50.2227 25.5408 49.6986 25.3731 49.1115C25.2473 48.4826 25.1844 47.8327 25.1844 47.1618C25.2264 46.4909 25.2473 45.9248 25.2473 45.4636C25.2473 44.6669 25.3102 43.9541 25.436 43.3251C25.5618 42.6542 25.6247 42.0253 25.6247 41.4382C25.6247 41.1447 25.5408 40.0964 25.3731 38.2934C25.2054 36.4485 25.1215 34.1423 25.1215 31.3749C25.1215 30.4524 25.0167 29.5509 24.8071 28.6703C24.6393 27.7478 24.4506 26.8673 24.241 26.0287L20.5301 26.2803C19.0206 26.4061 17.9723 26.6367 17.3853 26.9721C16.5048 26.9721 15.75 26.7205 15.1211 26.2174C14.4921 25.7142 14.1776 25.0643 14.1776 24.2676C14.1776 23.4709 14.534 22.5904 15.2468 21.626C15.4565 21.584 16.3999 21.4373 18.0772 21.1857C19.7544 20.8922 22.1654 20.4519 25.3102 19.8649L28.455 19.4875C29.4614 19.3617 30.4258 19.2988 31.3482 19.2988H32.2917L39.7134 19.802C40.594 20.3051 41.0342 21.2486 41.0342 22.6323C41.0342 23.387 40.8456 24.0999 40.4682 24.7708Z" stroke="#5AAB79" stroke-width="0.4" mask="url(#path-1-outside-1_6_30)"/>
<path d="M78.7201 45.4743C78.5943 45.6839 78.3637 45.8726 78.0283 46.0403C77.6928 46.1661 77.3364 46.271 76.959 46.3548C76.6236 46.3968 76.2881 46.4387 75.9527 46.4806C75.6592 46.5225 75.4915 46.5645 75.4495 46.6064C74.9044 46.6483 74.2755 46.6903 73.5626 46.7322C72.8498 46.7741 72.0112 46.837 71.0468 46.9209C70.921 46.879 70.7533 46.858 70.5436 46.858C70.3759 46.858 70.1243 46.8999 69.7889 46.9838C69.4534 47.0676 69.1809 47.1096 68.9712 47.1096C67.5875 47.1096 66.8957 46.3129 66.8957 44.7195C66.8957 43.5035 67.273 42.6649 68.0278 42.2037L70.6694 41.3231C70.6694 40.191 70.7952 38.5767 71.0468 36.4801C71.0049 36.2705 70.9629 36.0399 70.921 35.7883C70.921 35.4948 70.921 35.1803 70.921 34.8448C70.921 33.3773 70.9629 32.2451 71.0468 31.4485C71.1307 30.6518 71.1726 30.2115 71.1726 30.1276C71.1726 29.7503 71.1516 29.331 71.1097 28.8697C71.1097 28.3665 71.0678 27.7166 70.9839 26.9199C70.942 26.0813 70.8581 25.054 70.7323 23.838C70.6485 22.622 70.5436 21.1335 70.4178 19.3724L68.2165 19.0579C67.5875 18.0516 67.273 17.1501 67.273 16.3534C67.273 15.8922 67.3359 15.5148 67.4617 15.2213C67.5875 14.8858 67.8181 14.6133 68.1536 14.4036C68.531 14.194 69.0341 14.0472 69.6631 13.9633C70.334 13.8795 71.1936 13.8376 72.2418 13.8376C72.7869 13.8376 73.2901 13.8795 73.7513 13.9633C74.2126 14.0472 74.6109 14.1311 74.9464 14.2149C75.9527 14.2149 76.7703 14.2569 77.3993 14.3407C78.0283 14.3827 78.4895 14.5084 78.783 14.7181C79.1185 14.8858 79.3281 15.1374 79.412 15.4729C79.5378 15.7664 79.6007 16.1647 79.6007 16.6679C79.6007 17.7161 79.1394 18.6805 78.217 19.5611C78.0492 19.603 77.2945 19.624 75.9527 19.624C75.9946 20.253 76.0366 20.7981 76.0785 21.2593C76.1204 21.7205 76.1624 22.3285 76.2043 23.0833C76.2881 23.7961 76.351 24.7605 76.393 25.9765C76.4349 27.1506 76.4768 28.7649 76.5188 30.8195C76.5188 31.7839 76.4978 32.6225 76.4559 33.3353C76.4559 34.0062 76.4559 34.6142 76.4559 35.1593C76.4559 36.2495 76.4768 36.8575 76.5188 36.9833L76.2672 41.1345C77.4832 41.3022 78.3008 41.5957 78.7201 42.015C79.1814 42.4343 79.412 43.0633 79.412 43.9019C79.412 44.4889 79.1814 45.013 78.7201 45.4743Z" stroke="#5AAB79" stroke-width="0.4" mask="url(#path-1-outside-1_6_30)"/>
<path d="M135.241 38.4299C135.115 38.9331 134.801 39.5411 134.297 40.2539C133.836 40.9667 133.249 41.7005 132.536 42.4553C131.824 43.1681 131.048 43.818 130.209 44.405C129.413 44.9921 128.637 45.4114 127.882 45.663C125.702 46.6274 123.249 47.1096 120.523 47.1096C119.643 47.1096 118.867 47.0886 118.196 47.0467C117.567 47.0048 116.938 46.879 116.309 46.6693C115.68 46.4597 115.051 46.1242 114.422 45.663C113.793 45.2017 113.081 44.5308 112.284 43.6503C111.403 42.7278 110.711 41.8263 110.208 40.9458C109.705 40.0233 109.328 39.1427 109.076 38.3041C108.825 37.4655 108.657 36.6688 108.573 35.9141C108.489 35.1174 108.447 34.4046 108.447 33.7756C108.447 32.3919 108.615 30.7566 108.95 28.8697C109.286 26.9828 110.187 24.6766 111.655 21.9511C112.2 20.9448 112.619 20.1481 112.913 19.5611C113.206 18.9741 113.374 18.5757 113.416 18.3661L117.316 15.976C118.657 15.1793 119.936 14.5504 121.152 14.0891C122.368 13.586 123.71 13.3344 125.178 13.3344C125.597 13.3344 126.226 13.3344 127.064 13.3344C127.903 13.3344 128.721 13.4392 129.517 13.6489C130.356 13.8166 131.09 14.152 131.719 14.6552C132.348 15.1164 132.662 15.8083 132.662 16.7308C132.662 18.2822 131.74 19.1837 129.895 19.4353C129.937 19.4353 129.811 19.4143 129.517 19.3724C129.224 19.3305 128.826 19.2885 128.322 19.2466C127.819 19.2047 127.253 19.1628 126.624 19.1208C125.995 19.0789 125.366 19.0579 124.737 19.0579C123.647 19.0579 122.536 19.3724 121.404 20.0014C120.314 20.5884 118.972 21.6157 117.378 23.0833C116.54 24.8444 115.911 26.2281 115.492 27.2344C115.114 28.1988 114.926 28.8488 114.926 29.1842C114.464 30.0228 114.234 31.2598 114.234 32.8951C114.234 35.9141 114.779 38.0945 115.869 39.4363C116.959 40.7361 118.448 41.386 120.335 41.386C121.551 41.386 123.437 41.0506 125.995 40.3797C127.547 39.4572 128.888 37.9896 130.021 35.977C130.733 35.2642 131.467 34.9077 132.222 34.9077C133.019 34.9077 133.731 35.2222 134.36 35.8512C134.989 36.4801 135.304 37.193 135.304 37.9896C135.304 38.0735 135.283 38.1574 135.241 38.2412C135.241 38.2832 135.241 38.3461 135.241 38.4299Z" stroke="#5AAB79" stroke-width="0.4" mask="url(#path-1-outside-1_6_30)"/>
<mask id="path-2-outside-2_6_30" maskUnits="userSpaceOnUse" x="13.1012" y="63.5693" width="122" height="38" fill="black">
<rect fill="white" x="13.1012" y="63.5693" width="122" height="38"/>
<path d="M40.3918 73.3292C39.8047 73.5808 39.1548 73.7066 38.442 73.7066C38.2323 73.7066 37.9178 73.6856 37.4985 73.6437C37.1212 73.6018 36.7019 73.5598 36.2406 73.5179C35.7794 73.4341 35.3181 73.3712 34.8569 73.3292C34.4376 73.2454 34.1231 73.2034 33.9135 73.2034C32.5717 73.2034 31.2718 73.3921 30.0139 73.7695C30.2655 75.3629 30.4751 76.9143 30.6429 78.4238C30.8106 79.9333 30.9573 81.359 31.0831 82.7007C31.2089 84.0006 31.2928 85.1956 31.3347 86.2858C31.3767 87.3341 31.3976 88.2356 31.3976 88.9904C31.3976 90.8772 31.3767 92.5125 31.3347 93.8963C31.3347 95.238 31.2299 96.3702 31.0202 97.2926C30.8106 98.1732 30.4751 98.8231 30.0139 99.2424C29.5527 99.6617 28.8818 99.8714 28.0012 99.8714C27.1626 99.8714 26.5337 99.6617 26.1143 99.2424C25.737 98.7812 25.4644 98.257 25.2967 97.67C25.1709 97.0411 25.108 96.3911 25.108 95.7202C25.1499 95.0493 25.1709 94.4833 25.1709 94.022C25.1709 93.2254 25.2338 92.5125 25.3596 91.8836C25.4854 91.2127 25.5483 90.5837 25.5483 89.9967C25.5483 89.7032 25.4644 88.6549 25.2967 86.8519C25.129 85.0069 25.0451 82.7007 25.0451 79.9333C25.0451 79.0108 24.9403 78.1093 24.7306 77.2288C24.5629 76.3063 24.3742 75.4258 24.1646 74.5871L20.4537 74.8387C18.9442 74.9645 17.8959 75.1951 17.3089 75.5306C16.4284 75.5306 15.6736 75.279 15.0446 74.7758C14.4157 74.2727 14.1012 73.6227 14.1012 72.8261C14.1012 72.0294 14.4576 71.1488 15.1704 70.1844C15.3801 70.1425 16.3235 69.9957 18.0008 69.7442C19.678 69.4506 22.089 69.0104 25.2338 68.4233L28.3786 68.046C29.3849 67.9202 30.3494 67.8573 31.2718 67.8573H32.2153L39.637 68.3604C40.5176 68.8636 40.9578 69.807 40.9578 71.1908C40.9578 71.9455 40.7691 72.6583 40.3918 73.3292Z"/>
<path d="M88.1116 100.06C87.9439 100.857 87.1681 101.255 85.7844 101.255C84.6523 101.255 83.8346 101.004 83.3315 100.5C83.1218 99.7875 82.8283 98.9279 82.4509 97.9216C82.0736 96.8733 81.6333 95.6783 81.1301 94.3365C80.8785 92.7012 80.627 91.5481 80.3754 90.8772C80.1657 90.2063 79.8932 89.7032 79.5577 89.3677C78.9288 89.4097 78.0272 89.4935 76.8532 89.6193C75.6791 89.7032 74.4422 89.829 73.1423 89.9967C71.8425 90.1225 70.6265 90.3112 69.4943 90.5628C68.3622 90.7724 67.5446 91.003 67.0414 91.2546C66.8317 92.3029 66.5802 93.456 66.2866 94.7139C65.9931 95.9718 65.6367 97.3136 65.2174 98.7393C65.0916 99.1586 64.7981 99.4521 64.3369 99.6198C63.8756 99.8294 63.3096 99.9343 62.6387 99.9343C61.9678 99.9343 61.3807 99.8085 60.8776 99.5569C60.4163 99.3472 60.1857 99.0118 60.1857 98.5506C60.1857 97.7119 60.6889 95.2171 61.6952 91.0659C61.6533 90.8982 61.6323 90.6466 61.6323 90.3112C61.6323 89.7661 61.6952 89.0952 61.821 88.2985C61.9887 87.4599 62.1565 86.6632 62.3242 85.9084C62.4919 85.1537 62.6387 84.5038 62.7645 83.9587C62.9322 83.4136 63.016 83.1201 63.016 83.0781L65.0287 77.4804C65.1126 76.9353 65.3222 76.2015 65.6577 75.279C66.0351 74.3565 66.4334 73.4131 66.8527 72.4487C67.272 71.4843 67.6704 70.5828 68.0477 69.7442C68.4251 68.8636 68.6767 68.1927 68.8025 67.7315C69.1799 66.3478 70.1862 65.6559 71.8215 65.6559C73.1633 65.6559 74.0229 66.1591 74.4002 67.1654C74.4002 67.1654 74.526 67.396 74.7776 67.8573C75.0292 68.3185 75.3646 68.9055 75.784 69.6184C76.2033 70.3312 76.6435 71.1279 77.1048 72.0084C77.6079 72.847 78.0692 73.6647 78.4885 74.4614C78.9078 75.2161 79.2642 75.908 79.5577 76.5369C79.8512 77.124 80.019 77.5223 80.0609 77.732C80.3963 78.5286 80.8156 79.4511 81.3188 80.4994C81.822 81.5057 82.43 82.6378 83.1428 83.8958C83.5621 84.4409 83.9395 85.1747 84.2749 86.0971C84.6523 86.9777 84.9877 87.8792 85.2813 88.8017C85.5748 89.7241 85.8264 90.5628 86.036 91.3175C86.2457 92.0723 86.4344 92.5754 86.6021 92.827C86.6021 93.1205 86.6859 93.5818 86.8537 94.2107C87.0633 94.7978 87.252 95.4267 87.4197 96.0976C87.6294 96.7685 87.8181 97.3975 87.9858 97.9845C88.1535 98.5715 88.2374 98.9908 88.2374 99.2424C88.2374 99.4521 88.1954 99.7246 88.1116 100.06ZM77.1048 84.2103C76.7693 83.2039 76.4548 82.3443 76.1613 81.6315C75.9097 80.9187 75.5953 80.2059 75.2179 79.493C74.8824 78.7802 74.4841 77.9835 74.0229 77.103C73.5616 76.1805 72.9746 75.0065 72.2618 73.5808C71.2974 75.3419 70.6055 77.3755 70.1862 79.6817C69.3056 81.4009 68.6767 83.2249 68.2993 85.1537C69.5992 84.7763 70.6474 84.5876 71.4441 84.5876C71.7376 84.5876 71.9473 84.6086 72.0731 84.6505C72.7859 84.4828 73.6455 84.3989 74.6518 84.3989C75.6582 84.3989 76.4758 84.336 77.1048 84.2103Z"/>
<path d="M134.648 89.6648C134.523 90.168 134.208 90.776 133.705 91.4888C133.244 92.2016 132.657 92.9354 131.944 93.6902C131.231 94.403 130.455 95.0529 129.617 95.6399C128.82 96.227 128.044 96.6463 127.289 96.8979C125.109 97.8623 122.656 98.3445 119.931 98.3445C119.05 98.3445 118.274 98.3235 117.603 98.2816C116.975 98.2397 116.346 98.1139 115.717 97.9042C115.088 97.6945 114.459 97.3591 113.83 96.8979C113.201 96.4366 112.488 95.7657 111.691 94.8852C110.811 93.9627 110.119 93.0612 109.616 92.1807C109.112 91.2582 108.735 90.3776 108.484 89.539C108.232 88.7004 108.064 87.9037 107.98 87.149C107.897 86.3523 107.855 85.6395 107.855 85.0105C107.855 83.6268 108.022 81.9915 108.358 80.1046C108.693 78.2177 109.595 75.9115 111.062 73.186C111.607 72.1797 112.027 71.383 112.32 70.796C112.614 70.209 112.781 69.8106 112.823 69.601L116.723 67.2109C118.065 66.4142 119.344 65.7853 120.56 65.324C121.776 64.8209 123.117 64.5693 124.585 64.5693C125.004 64.5693 125.633 64.5693 126.472 64.5693C127.31 64.5693 128.128 64.6741 128.925 64.8838C129.763 65.0515 130.497 65.3869 131.126 65.8901C131.755 66.3513 132.07 67.0432 132.07 67.9657C132.07 69.5171 131.147 70.4186 129.302 70.6702C129.344 70.6702 129.218 70.6492 128.925 70.6073C128.631 70.5654 128.233 70.5234 127.73 70.4815C127.227 70.4396 126.661 70.3976 126.032 70.3557C125.403 70.3138 124.774 70.2928 124.145 70.2928C123.054 70.2928 121.943 70.6073 120.811 71.2363C119.721 71.8233 118.379 72.8506 116.786 74.3182C115.947 76.0793 115.318 77.463 114.899 78.4693C114.522 79.4337 114.333 80.0836 114.333 80.4191C113.872 81.2577 113.641 82.4947 113.641 84.13C113.641 87.149 114.186 89.3294 115.276 90.6712C116.367 91.971 117.855 92.6209 119.742 92.6209C120.958 92.6209 122.845 92.2855 125.403 91.6146C126.954 90.6921 128.296 89.2245 129.428 87.2119C130.141 86.499 130.875 86.1426 131.629 86.1426C132.426 86.1426 133.139 86.4571 133.768 87.0861C134.397 87.715 134.711 88.4279 134.711 89.2245C134.711 89.3084 134.69 89.3923 134.648 89.4761C134.648 89.5181 134.648 89.581 134.648 89.6648Z"/>
</mask>
<path d="M40.3918 73.3292C39.8047 73.5808 39.1548 73.7066 38.442 73.7066C38.2323 73.7066 37.9178 73.6856 37.4985 73.6437C37.1212 73.6018 36.7019 73.5598 36.2406 73.5179C35.7794 73.4341 35.3181 73.3712 34.8569 73.3292C34.4376 73.2454 34.1231 73.2034 33.9135 73.2034C32.5717 73.2034 31.2718 73.3921 30.0139 73.7695C30.2655 75.3629 30.4751 76.9143 30.6429 78.4238C30.8106 79.9333 30.9573 81.359 31.0831 82.7007C31.2089 84.0006 31.2928 85.1956 31.3347 86.2858C31.3767 87.3341 31.3976 88.2356 31.3976 88.9904C31.3976 90.8772 31.3767 92.5125 31.3347 93.8963C31.3347 95.238 31.2299 96.3702 31.0202 97.2926C30.8106 98.1732 30.4751 98.8231 30.0139 99.2424C29.5527 99.6617 28.8818 99.8714 28.0012 99.8714C27.1626 99.8714 26.5337 99.6617 26.1143 99.2424C25.737 98.7812 25.4644 98.257 25.2967 97.67C25.1709 97.0411 25.108 96.3911 25.108 95.7202C25.1499 95.0493 25.1709 94.4833 25.1709 94.022C25.1709 93.2254 25.2338 92.5125 25.3596 91.8836C25.4854 91.2127 25.5483 90.5837 25.5483 89.9967C25.5483 89.7032 25.4644 88.6549 25.2967 86.8519C25.129 85.0069 25.0451 82.7007 25.0451 79.9333C25.0451 79.0108 24.9403 78.1093 24.7306 77.2288C24.5629 76.3063 24.3742 75.4258 24.1646 74.5871L20.4537 74.8387C18.9442 74.9645 17.8959 75.1951 17.3089 75.5306C16.4284 75.5306 15.6736 75.279 15.0446 74.7758C14.4157 74.2727 14.1012 73.6227 14.1012 72.8261C14.1012 72.0294 14.4576 71.1488 15.1704 70.1844C15.3801 70.1425 16.3235 69.9957 18.0008 69.7442C19.678 69.4506 22.089 69.0104 25.2338 68.4233L28.3786 68.046C29.3849 67.9202 30.3494 67.8573 31.2718 67.8573H32.2153L39.637 68.3604C40.5176 68.8636 40.9578 69.807 40.9578 71.1908C40.9578 71.9455 40.7691 72.6583 40.3918 73.3292Z" fill="#7989C4"/>
<path d="M88.1116 100.06C87.9439 100.857 87.1681 101.255 85.7844 101.255C84.6523 101.255 83.8346 101.004 83.3315 100.5C83.1218 99.7875 82.8283 98.9279 82.4509 97.9216C82.0736 96.8733 81.6333 95.6783 81.1301 94.3365C80.8785 92.7012 80.627 91.5481 80.3754 90.8772C80.1657 90.2063 79.8932 89.7032 79.5577 89.3677C78.9288 89.4097 78.0272 89.4935 76.8532 89.6193C75.6791 89.7032 74.4422 89.829 73.1423 89.9967C71.8425 90.1225 70.6265 90.3112 69.4943 90.5628C68.3622 90.7724 67.5446 91.003 67.0414 91.2546C66.8317 92.3029 66.5802 93.456 66.2866 94.7139C65.9931 95.9718 65.6367 97.3136 65.2174 98.7393C65.0916 99.1586 64.7981 99.4521 64.3369 99.6198C63.8756 99.8294 63.3096 99.9343 62.6387 99.9343C61.9678 99.9343 61.3807 99.8085 60.8776 99.5569C60.4163 99.3472 60.1857 99.0118 60.1857 98.5506C60.1857 97.7119 60.6889 95.2171 61.6952 91.0659C61.6533 90.8982 61.6323 90.6466 61.6323 90.3112C61.6323 89.7661 61.6952 89.0952 61.821 88.2985C61.9887 87.4599 62.1565 86.6632 62.3242 85.9084C62.4919 85.1537 62.6387 84.5038 62.7645 83.9587C62.9322 83.4136 63.016 83.1201 63.016 83.0781L65.0287 77.4804C65.1126 76.9353 65.3222 76.2015 65.6577 75.279C66.0351 74.3565 66.4334 73.4131 66.8527 72.4487C67.272 71.4843 67.6704 70.5828 68.0477 69.7442C68.4251 68.8636 68.6767 68.1927 68.8025 67.7315C69.1799 66.3478 70.1862 65.6559 71.8215 65.6559C73.1633 65.6559 74.0229 66.1591 74.4002 67.1654C74.4002 67.1654 74.526 67.396 74.7776 67.8573C75.0292 68.3185 75.3646 68.9055 75.784 69.6184C76.2033 70.3312 76.6435 71.1279 77.1048 72.0084C77.6079 72.847 78.0692 73.6647 78.4885 74.4614C78.9078 75.2161 79.2642 75.908 79.5577 76.5369C79.8512 77.124 80.019 77.5223 80.0609 77.732C80.3963 78.5286 80.8156 79.4511 81.3188 80.4994C81.822 81.5057 82.43 82.6378 83.1428 83.8958C83.5621 84.4409 83.9395 85.1747 84.2749 86.0971C84.6523 86.9777 84.9877 87.8792 85.2813 88.8017C85.5748 89.7241 85.8264 90.5628 86.036 91.3175C86.2457 92.0723 86.4344 92.5754 86.6021 92.827C86.6021 93.1205 86.6859 93.5818 86.8537 94.2107C87.0633 94.7978 87.252 95.4267 87.4197 96.0976C87.6294 96.7685 87.8181 97.3975 87.9858 97.9845C88.1535 98.5715 88.2374 98.9908 88.2374 99.2424C88.2374 99.4521 88.1954 99.7246 88.1116 100.06ZM77.1048 84.2103C76.7693 83.2039 76.4548 82.3443 76.1613 81.6315C75.9097 80.9187 75.5953 80.2059 75.2179 79.493C74.8824 78.7802 74.4841 77.9835 74.0229 77.103C73.5616 76.1805 72.9746 75.0065 72.2618 73.5808C71.2974 75.3419 70.6055 77.3755 70.1862 79.6817C69.3056 81.4009 68.6767 83.2249 68.2993 85.1537C69.5992 84.7763 70.6474 84.5876 71.4441 84.5876C71.7376 84.5876 71.9473 84.6086 72.0731 84.6505C72.7859 84.4828 73.6455 84.3989 74.6518 84.3989C75.6582 84.3989 76.4758 84.336 77.1048 84.2103Z" fill="#7989C4"/>
<path d="M134.648 89.6648C134.523 90.168 134.208 90.776 133.705 91.4888C133.244 92.2016 132.657 92.9354 131.944 93.6902C131.231 94.403 130.455 95.0529 129.617 95.6399C128.82 96.227 128.044 96.6463 127.289 96.8979C125.109 97.8623 122.656 98.3445 119.931 98.3445C119.05 98.3445 118.274 98.3235 117.603 98.2816C116.975 98.2397 116.346 98.1139 115.717 97.9042C115.088 97.6945 114.459 97.3591 113.83 96.8979C113.201 96.4366 112.488 95.7657 111.691 94.8852C110.811 93.9627 110.119 93.0612 109.616 92.1807C109.112 91.2582 108.735 90.3776 108.484 89.539C108.232 88.7004 108.064 87.9037 107.98 87.149C107.897 86.3523 107.855 85.6395 107.855 85.0105C107.855 83.6268 108.022 81.9915 108.358 80.1046C108.693 78.2177 109.595 75.9115 111.062 73.186C111.607 72.1797 112.027 71.383 112.32 70.796C112.614 70.209 112.781 69.8106 112.823 69.601L116.723 67.2109C118.065 66.4142 119.344 65.7853 120.56 65.324C121.776 64.8209 123.117 64.5693 124.585 64.5693C125.004 64.5693 125.633 64.5693 126.472 64.5693C127.31 64.5693 128.128 64.6741 128.925 64.8838C129.763 65.0515 130.497 65.3869 131.126 65.8901C131.755 66.3513 132.07 67.0432 132.07 67.9657C132.07 69.5171 131.147 70.4186 129.302 70.6702C129.344 70.6702 129.218 70.6492 128.925 70.6073C128.631 70.5654 128.233 70.5234 127.73 70.4815C127.227 70.4396 126.661 70.3976 126.032 70.3557C125.403 70.3138 124.774 70.2928 124.145 70.2928C123.054 70.2928 121.943 70.6073 120.811 71.2363C119.721 71.8233 118.379 72.8506 116.786 74.3182C115.947 76.0793 115.318 77.463 114.899 78.4693C114.522 79.4337 114.333 80.0836 114.333 80.4191C113.872 81.2577 113.641 82.4947 113.641 84.13C113.641 87.149 114.186 89.3294 115.276 90.6712C116.367 91.971 117.855 92.6209 119.742 92.6209C120.958 92.6209 122.845 92.2855 125.403 91.6146C126.954 90.6921 128.296 89.2245 129.428 87.2119C130.141 86.499 130.875 86.1426 131.629 86.1426C132.426 86.1426 133.139 86.4571 133.768 87.0861C134.397 87.715 134.711 88.4279 134.711 89.2245C134.711 89.3084 134.69 89.3923 134.648 89.4761C134.648 89.5181 134.648 89.581 134.648 89.6648Z" fill="#7989C4"/>
<path d="M40.3918 73.3292C39.8047 73.5808 39.1548 73.7066 38.442 73.7066C38.2323 73.7066 37.9178 73.6856 37.4985 73.6437C37.1212 73.6018 36.7019 73.5598 36.2406 73.5179C35.7794 73.4341 35.3181 73.3712 34.8569 73.3292C34.4376 73.2454 34.1231 73.2034 33.9135 73.2034C32.5717 73.2034 31.2718 73.3921 30.0139 73.7695C30.2655 75.3629 30.4751 76.9143 30.6429 78.4238C30.8106 79.9333 30.9573 81.359 31.0831 82.7007C31.2089 84.0006 31.2928 85.1956 31.3347 86.2858C31.3767 87.3341 31.3976 88.2356 31.3976 88.9904C31.3976 90.8772 31.3767 92.5125 31.3347 93.8963C31.3347 95.238 31.2299 96.3702 31.0202 97.2926C30.8106 98.1732 30.4751 98.8231 30.0139 99.2424C29.5527 99.6617 28.8818 99.8714 28.0012 99.8714C27.1626 99.8714 26.5337 99.6617 26.1143 99.2424C25.737 98.7812 25.4644 98.257 25.2967 97.67C25.1709 97.0411 25.108 96.3911 25.108 95.7202C25.1499 95.0493 25.1709 94.4833 25.1709 94.022C25.1709 93.2254 25.2338 92.5125 25.3596 91.8836C25.4854 91.2127 25.5483 90.5837 25.5483 89.9967C25.5483 89.7032 25.4644 88.6549 25.2967 86.8519C25.129 85.0069 25.0451 82.7007 25.0451 79.9333C25.0451 79.0108 24.9403 78.1093 24.7306 77.2288C24.5629 76.3063 24.3742 75.4258 24.1646 74.5871L20.4537 74.8387C18.9442 74.9645 17.8959 75.1951 17.3089 75.5306C16.4284 75.5306 15.6736 75.279 15.0446 74.7758C14.4157 74.2727 14.1012 73.6227 14.1012 72.8261C14.1012 72.0294 14.4576 71.1488 15.1704 70.1844C15.3801 70.1425 16.3235 69.9957 18.0008 69.7442C19.678 69.4506 22.089 69.0104 25.2338 68.4233L28.3786 68.046C29.3849 67.9202 30.3494 67.8573 31.2718 67.8573H32.2153L39.637 68.3604C40.5176 68.8636 40.9578 69.807 40.9578 71.1908C40.9578 71.9455 40.7691 72.6583 40.3918 73.3292Z" stroke="#7989C4" stroke-width="0.4" mask="url(#path-2-outside-2_6_30)"/>
<path d="M88.1116 100.06C87.9439 100.857 87.1681 101.255 85.7844 101.255C84.6523 101.255 83.8346 101.004 83.3315 100.5C83.1218 99.7875 82.8283 98.9279 82.4509 97.9216C82.0736 96.8733 81.6333 95.6783 81.1301 94.3365C80.8785 92.7012 80.627 91.5481 80.3754 90.8772C80.1657 90.2063 79.8932 89.7032 79.5577 89.3677C78.9288 89.4097 78.0272 89.4935 76.8532 89.6193C75.6791 89.7032 74.4422 89.829 73.1423 89.9967C71.8425 90.1225 70.6265 90.3112 69.4943 90.5628C68.3622 90.7724 67.5446 91.003 67.0414 91.2546C66.8317 92.3029 66.5802 93.456 66.2866 94.7139C65.9931 95.9718 65.6367 97.3136 65.2174 98.7393C65.0916 99.1586 64.7981 99.4521 64.3369 99.6198C63.8756 99.8294 63.3096 99.9343 62.6387 99.9343C61.9678 99.9343 61.3807 99.8085 60.8776 99.5569C60.4163 99.3472 60.1857 99.0118 60.1857 98.5506C60.1857 97.7119 60.6889 95.2171 61.6952 91.0659C61.6533 90.8982 61.6323 90.6466 61.6323 90.3112C61.6323 89.7661 61.6952 89.0952 61.821 88.2985C61.9887 87.4599 62.1565 86.6632 62.3242 85.9084C62.4919 85.1537 62.6387 84.5038 62.7645 83.9587C62.9322 83.4136 63.016 83.1201 63.016 83.0781L65.0287 77.4804C65.1126 76.9353 65.3222 76.2015 65.6577 75.279C66.0351 74.3565 66.4334 73.4131 66.8527 72.4487C67.272 71.4843 67.6704 70.5828 68.0477 69.7442C68.4251 68.8636 68.6767 68.1927 68.8025 67.7315C69.1799 66.3478 70.1862 65.6559 71.8215 65.6559C73.1633 65.6559 74.0229 66.1591 74.4002 67.1654C74.4002 67.1654 74.526 67.396 74.7776 67.8573C75.0292 68.3185 75.3646 68.9055 75.784 69.6184C76.2033 70.3312 76.6435 71.1279 77.1048 72.0084C77.6079 72.847 78.0692 73.6647 78.4885 74.4614C78.9078 75.2161 79.2642 75.908 79.5577 76.5369C79.8512 77.124 80.019 77.5223 80.0609 77.732C80.3963 78.5286 80.8156 79.4511 81.3188 80.4994C81.822 81.5057 82.43 82.6378 83.1428 83.8958C83.5621 84.4409 83.9395 85.1747 84.2749 86.0971C84.6523 86.9777 84.9877 87.8792 85.2813 88.8017C85.5748 89.7241 85.8264 90.5628 86.036 91.3175C86.2457 92.0723 86.4344 92.5754 86.6021 92.827C86.6021 93.1205 86.6859 93.5818 86.8537 94.2107C87.0633 94.7978 87.252 95.4267 87.4197 96.0976C87.6294 96.7685 87.8181 97.3975 87.9858 97.9845C88.1535 98.5715 88.2374 98.9908 88.2374 99.2424C88.2374 99.4521 88.1954 99.7246 88.1116 100.06ZM77.1048 84.2103C76.7693 83.2039 76.4548 82.3443 76.1613 81.6315C75.9097 80.9187 75.5953 80.2059 75.2179 79.493C74.8824 78.7802 74.4841 77.9835 74.0229 77.103C73.5616 76.1805 72.9746 75.0065 72.2618 73.5808C71.2974 75.3419 70.6055 77.3755 70.1862 79.6817C69.3056 81.4009 68.6767 83.2249 68.2993 85.1537C69.5992 84.7763 70.6474 84.5876 71.4441 84.5876C71.7376 84.5876 71.9473 84.6086 72.0731 84.6505C72.7859 84.4828 73.6455 84.3989 74.6518 84.3989C75.6582 84.3989 76.4758 84.336 77.1048 84.2103Z" stroke="#7989C4" stroke-width="0.4" mask="url(#path-2-outside-2_6_30)"/>
<path d="M134.648 89.6648C134.523 90.168 134.208 90.776 133.705 91.4888C133.244 92.2016 132.657 92.9354 131.944 93.6902C131.231 94.403 130.455 95.0529 129.617 95.6399C128.82 96.227 128.044 96.6463 127.289 96.8979C125.109 97.8623 122.656 98.3445 119.931 98.3445C119.05 98.3445 118.274 98.3235 117.603 98.2816C116.975 98.2397 116.346 98.1139 115.717 97.9042C115.088 97.6945 114.459 97.3591 113.83 96.8979C113.201 96.4366 112.488 95.7657 111.691 94.8852C110.811 93.9627 110.119 93.0612 109.616 92.1807C109.112 91.2582 108.735 90.3776 108.484 89.539C108.232 88.7004 108.064 87.9037 107.98 87.149C107.897 86.3523 107.855 85.6395 107.855 85.0105C107.855 83.6268 108.022 81.9915 108.358 80.1046C108.693 78.2177 109.595 75.9115 111.062 73.186C111.607 72.1797 112.027 71.383 112.32 70.796C112.614 70.209 112.781 69.8106 112.823 69.601L116.723 67.2109C118.065 66.4142 119.344 65.7853 120.56 65.324C121.776 64.8209 123.117 64.5693 124.585 64.5693C125.004 64.5693 125.633 64.5693 126.472 64.5693C127.31 64.5693 128.128 64.6741 128.925 64.8838C129.763 65.0515 130.497 65.3869 131.126 65.8901C131.755 66.3513 132.07 67.0432 132.07 67.9657C132.07 69.5171 131.147 70.4186 129.302 70.6702C129.344 70.6702 129.218 70.6492 128.925 70.6073C128.631 70.5654 128.233 70.5234 127.73 70.4815C127.227 70.4396 126.661 70.3976 126.032 70.3557C125.403 70.3138 124.774 70.2928 124.145 70.2928C123.054 70.2928 121.943 70.6073 120.811 71.2363C119.721 71.8233 118.379 72.8506 116.786 74.3182C115.947 76.0793 115.318 77.463 114.899 78.4693C114.522 79.4337 114.333 80.0836 114.333 80.4191C113.872 81.2577 113.641 82.4947 113.641 84.13C113.641 87.149 114.186 89.3294 115.276 90.6712C116.367 91.971 117.855 92.6209 119.742 92.6209C120.958 92.6209 122.845 92.2855 125.403 91.6146C126.954 90.6921 128.296 89.2245 129.428 87.2119C130.141 86.499 130.875 86.1426 131.629 86.1426C132.426 86.1426 133.139 86.4571 133.768 87.0861C134.397 87.715 134.711 88.4279 134.711 89.2245C134.711 89.3084 134.69 89.3923 134.648 89.4761C134.648 89.5181 134.648 89.581 134.648 89.6648Z" stroke="#7989C4" stroke-width="0.4" mask="url(#path-2-outside-2_6_30)"/>
<mask id="path-3-outside-3_6_30" maskUnits="userSpaceOnUse" x="13.1538" y="118.91" width="129" height="40" fill="black">
<rect fill="white" x="13.1538" y="118.91" width="129" height="40"/>
<path d="M40.4444 129.985C39.8573 130.237 39.2074 130.363 38.4946 130.363C38.2849 130.363 37.9705 130.342 37.5512 130.3C37.1738 130.258 36.7545 130.216 36.2932 130.174C35.832 130.09 35.3708 130.027 34.9095 129.985C34.4902 129.901 34.1757 129.859 33.9661 129.859C32.6243 129.859 31.3244 130.048 30.0665 130.425C30.3181 132.019 30.5278 133.57 30.6955 135.08C30.8632 136.589 31.01 138.015 31.1358 139.357C31.2615 140.657 31.3454 141.852 31.3873 142.942C31.4293 143.99 31.4502 144.892 31.4502 145.646C31.4502 147.533 31.4293 149.169 31.3873 150.552C31.3873 151.894 31.2825 153.026 31.0729 153.949C30.8632 154.829 30.5278 155.479 30.0665 155.898C29.6053 156.318 28.9344 156.527 28.0538 156.527C27.2152 156.527 26.5863 156.318 26.167 155.898C25.7896 155.437 25.517 154.913 25.3493 154.326C25.2235 153.697 25.1606 153.047 25.1606 152.376C25.2026 151.705 25.2235 151.139 25.2235 150.678C25.2235 149.881 25.2864 149.169 25.4122 148.54C25.538 147.869 25.6009 147.24 25.6009 146.653C25.6009 146.359 25.517 145.311 25.3493 143.508C25.1816 141.663 25.0977 139.357 25.0977 136.589C25.0977 135.667 24.9929 134.765 24.7832 133.885C24.6155 132.962 24.4268 132.082 24.2172 131.243L20.5063 131.495C18.9968 131.621 17.9485 131.851 17.3615 132.187C16.481 132.187 15.7262 131.935 15.0973 131.432C14.4683 130.929 14.1538 130.279 14.1538 129.482C14.1538 128.685 14.5102 127.805 15.223 126.84C15.4327 126.798 16.3761 126.652 18.0534 126.4C19.7306 126.107 22.1416 125.666 25.2864 125.079L28.4312 124.702C29.4376 124.576 30.402 124.513 31.3244 124.513H32.2679L39.6896 125.016C40.5702 125.52 41.0104 126.463 41.0104 127.847C41.0104 128.601 40.8218 129.314 40.4444 129.985Z"/>
<path d="M89.5881 140.477C89.043 142.657 87.4915 145.173 84.9338 148.024C84.5983 148.15 84.158 148.402 83.6129 148.779C83.1098 149.156 82.4389 149.555 81.6003 149.974C80.8036 150.351 79.8182 150.687 78.6441 150.98C77.4701 151.274 76.0864 151.421 74.493 151.421C71.3063 151.421 68.6437 150.582 66.5052 148.905C64.3667 147.186 62.7105 144.502 61.5364 140.854C61.4945 140.561 61.4735 140.267 61.4735 139.974C61.4735 139.68 61.4735 139.366 61.4735 139.03C61.4735 136.43 61.7461 134.145 62.2912 132.175C62.8363 130.162 63.57 128.422 64.4925 126.954C65.415 125.487 66.4633 124.25 67.6373 123.243C68.8533 122.237 70.1112 121.419 71.4111 120.79C73.5496 120.203 75.6461 119.91 77.7007 119.91C79.1683 119.91 80.6149 120.287 82.0405 121.042C83.4662 121.797 84.7241 122.866 85.8143 124.25C86.9464 125.633 87.8479 127.332 88.5188 129.344C89.2316 131.315 89.63 133.558 89.7139 136.074L89.5881 140.477ZM83.8016 140.288C84.0951 138.569 84.2419 137.227 84.2419 136.263C84.2419 134.669 84.0113 133.202 83.55 131.86C83.0888 130.518 82.5437 129.365 81.9147 128.401C81.2858 127.394 80.6149 126.619 79.9021 126.074C79.2312 125.487 78.6651 125.193 78.2039 125.193C75.9815 125.193 74.1576 125.696 72.7319 126.703C71.3482 127.667 70.258 128.841 69.4613 130.225C68.6646 131.608 68.1195 133.055 67.826 134.565C67.5325 136.074 67.3857 137.353 67.3857 138.401C67.3857 139.366 67.5325 140.309 67.826 141.232C68.1615 142.112 68.6227 142.909 69.2097 143.622C69.8387 144.293 70.5725 144.838 71.4111 145.257C72.2497 145.676 73.2141 145.886 74.3043 145.886C76.8621 145.886 78.8748 145.425 80.3423 144.502C81.8099 143.538 82.963 142.133 83.8016 140.288Z"/>
<path d="M139.214 151.74C140.598 152.453 141.29 153.48 141.29 154.822C141.29 155.702 141.059 156.331 140.598 156.709C140.179 157.086 139.55 157.338 138.711 157.463C137.915 157.631 136.908 157.715 135.692 157.715C134.476 157.757 133.114 157.82 131.604 157.904C131.101 157.736 129.256 157.568 126.069 157.401C125.608 157.443 125.168 157.463 124.748 157.463C124.329 157.505 123.931 157.526 123.553 157.526C121.289 157.526 119.738 157.191 118.899 156.52C118.689 154.843 118.522 153.291 118.396 151.866C118.312 150.44 118.27 149.14 118.27 147.966C118.27 146.121 118.333 144.528 118.459 143.186C118.627 141.802 118.71 140.565 118.71 139.475C118.71 138.133 118.647 137.085 118.522 136.33L118.899 129.726C119.067 128.133 119.255 126.77 119.465 125.638C119.717 124.506 120.01 123.646 120.346 123.059C120.597 122.724 121.855 122.305 124.119 121.801L128.145 120.921C128.396 120.879 128.92 120.816 129.717 120.732C130.514 120.648 131.332 120.564 132.17 120.481C133.051 120.397 133.826 120.334 134.497 120.292C135.168 120.25 135.483 120.229 135.441 120.229H135.692C136.154 120.229 136.615 120.543 137.076 121.172C137.579 121.801 137.831 122.535 137.831 123.374C137.831 123.793 137.81 124.17 137.768 124.506C137.768 124.841 137.642 125.135 137.39 125.386C137.139 125.596 136.72 125.764 136.133 125.89C135.546 126.015 134.686 126.099 133.554 126.141C131.709 126.225 130.451 126.414 129.78 126.707H129.466C128.375 126.707 127.013 126.959 125.377 127.462C125.21 127.672 125.084 128.049 125 128.594C124.916 129.097 124.853 129.642 124.811 130.229C124.769 130.775 124.727 131.257 124.685 131.676C124.685 132.053 124.685 132.179 124.685 132.053C124.644 132.263 124.602 132.473 124.56 132.682C124.56 132.892 124.56 133.165 124.56 133.5C124.56 133.794 124.56 134.129 124.56 134.506C124.602 134.842 124.644 135.219 124.685 135.639C125.985 135.513 127.034 135.387 127.83 135.261C128.669 135.093 129.319 135.01 129.78 135.01C130.661 135.01 131.52 134.989 132.359 134.947C133.197 134.905 133.931 134.968 134.56 135.135C135.231 135.261 135.755 135.555 136.133 136.016C136.51 136.435 136.699 137.127 136.699 138.091C136.699 139.182 136.342 139.895 135.629 140.23C134.959 140.565 133.763 140.754 132.044 140.796C130.032 140.88 128.816 140.964 128.396 141.048C128.145 141.048 127.872 141.048 127.579 141.048C127.327 141.006 127.034 140.985 126.698 140.985C126.489 140.985 126.237 140.985 125.943 140.985C125.692 140.943 125.44 140.943 125.189 140.985C124.937 140.985 124.706 141.069 124.497 141.236C124.329 141.362 124.245 141.614 124.245 141.991C124.245 142.243 124.245 142.578 124.245 142.997C124.287 143.375 124.308 143.731 124.308 144.067C124.308 144.57 124.287 145.073 124.245 145.576C124.245 146.079 124.224 146.624 124.182 147.211C124.182 147.757 124.161 148.385 124.119 149.098C124.119 149.811 124.119 150.65 124.119 151.614C124.371 151.656 124.853 151.698 125.566 151.74C126.321 151.782 127.097 151.824 127.893 151.866C128.732 151.908 129.528 151.971 130.283 152.054C131.038 152.096 131.541 152.138 131.793 152.18C131.835 152.18 132.128 152.159 132.673 152.117C133.218 152.075 134.015 152.012 135.063 151.929C136.489 151.803 137.621 151.74 138.46 151.74H139.214Z"/>
</mask>
<path d="M40.4444 129.985C39.8573 130.237 39.2074 130.363 38.4946 130.363C38.2849 130.363 37.9705 130.342 37.5512 130.3C37.1738 130.258 36.7545 130.216 36.2932 130.174C35.832 130.09 35.3708 130.027 34.9095 129.985C34.4902 129.901 34.1757 129.859 33.9661 129.859C32.6243 129.859 31.3244 130.048 30.0665 130.425C30.3181 132.019 30.5278 133.57 30.6955 135.08C30.8632 136.589 31.01 138.015 31.1358 139.357C31.2615 140.657 31.3454 141.852 31.3873 142.942C31.4293 143.99 31.4502 144.892 31.4502 145.646C31.4502 147.533 31.4293 149.169 31.3873 150.552C31.3873 151.894 31.2825 153.026 31.0729 153.949C30.8632 154.829 30.5278 155.479 30.0665 155.898C29.6053 156.318 28.9344 156.527 28.0538 156.527C27.2152 156.527 26.5863 156.318 26.167 155.898C25.7896 155.437 25.517 154.913 25.3493 154.326C25.2235 153.697 25.1606 153.047 25.1606 152.376C25.2026 151.705 25.2235 151.139 25.2235 150.678C25.2235 149.881 25.2864 149.169 25.4122 148.54C25.538 147.869 25.6009 147.24 25.6009 146.653C25.6009 146.359 25.517 145.311 25.3493 143.508C25.1816 141.663 25.0977 139.357 25.0977 136.589C25.0977 135.667 24.9929 134.765 24.7832 133.885C24.6155 132.962 24.4268 132.082 24.2172 131.243L20.5063 131.495C18.9968 131.621 17.9485 131.851 17.3615 132.187C16.481 132.187 15.7262 131.935 15.0973 131.432C14.4683 130.929 14.1538 130.279 14.1538 129.482C14.1538 128.685 14.5102 127.805 15.223 126.84C15.4327 126.798 16.3761 126.652 18.0534 126.4C19.7306 126.107 22.1416 125.666 25.2864 125.079L28.4312 124.702C29.4376 124.576 30.402 124.513 31.3244 124.513H32.2679L39.6896 125.016C40.5702 125.52 41.0104 126.463 41.0104 127.847C41.0104 128.601 40.8218 129.314 40.4444 129.985Z" fill="#FB9C7F"/>
<path d="M89.5881 140.477C89.043 142.657 87.4915 145.173 84.9338 148.024C84.5983 148.15 84.158 148.402 83.6129 148.779C83.1098 149.156 82.4389 149.555 81.6003 149.974C80.8036 150.351 79.8182 150.687 78.6441 150.98C77.4701 151.274 76.0864 151.421 74.493 151.421C71.3063 151.421 68.6437 150.582 66.5052 148.905C64.3667 147.186 62.7105 144.502 61.5364 140.854C61.4945 140.561 61.4735 140.267 61.4735 139.974C61.4735 139.68 61.4735 139.366 61.4735 139.03C61.4735 136.43 61.7461 134.145 62.2912 132.175C62.8363 130.162 63.57 128.422 64.4925 126.954C65.415 125.487 66.4633 124.25 67.6373 123.243C68.8533 122.237 70.1112 121.419 71.4111 120.79C73.5496 120.203 75.6461 119.91 77.7007 119.91C79.1683 119.91 80.6149 120.287 82.0405 121.042C83.4662 121.797 84.7241 122.866 85.8143 124.25C86.9464 125.633 87.8479 127.332 88.5188 129.344C89.2316 131.315 89.63 133.558 89.7139 136.074L89.5881 140.477ZM83.8016 140.288C84.0951 138.569 84.2419 137.227 84.2419 136.263C84.2419 134.669 84.0113 133.202 83.55 131.86C83.0888 130.518 82.5437 129.365 81.9147 128.401C81.2858 127.394 80.6149 126.619 79.9021 126.074C79.2312 125.487 78.6651 125.193 78.2039 125.193C75.9815 125.193 74.1576 125.696 72.7319 126.703C71.3482 127.667 70.258 128.841 69.4613 130.225C68.6646 131.608 68.1195 133.055 67.826 134.565C67.5325 136.074 67.3857 137.353 67.3857 138.401C67.3857 139.366 67.5325 140.309 67.826 141.232C68.1615 142.112 68.6227 142.909 69.2097 143.622C69.8387 144.293 70.5725 144.838 71.4111 145.257C72.2497 145.676 73.2141 145.886 74.3043 145.886C76.8621 145.886 78.8748 145.425 80.3423 144.502C81.8099 143.538 82.963 142.133 83.8016 140.288Z" fill="#FB9C7F"/>
<path d="M139.214 151.74C140.598 152.453 141.29 153.48 141.29 154.822C141.29 155.702 141.059 156.331 140.598 156.709C140.179 157.086 139.55 157.338 138.711 157.463C137.915 157.631 136.908 157.715 135.692 157.715C134.476 157.757 133.114 157.82 131.604 157.904C131.101 157.736 129.256 157.568 126.069 157.401C125.608 157.443 125.168 157.463 124.748 157.463C124.329 157.505 123.931 157.526 123.553 157.526C121.289 157.526 119.738 157.191 118.899 156.52C118.689 154.843 118.522 153.291 118.396 151.866C118.312 150.44 118.27 149.14 118.27 147.966C118.27 146.121 118.333 144.528 118.459 143.186C118.627 141.802 118.71 140.565 118.71 139.475C118.71 138.133 118.647 137.085 118.522 136.33L118.899 129.726C119.067 128.133 119.255 126.77 119.465 125.638C119.717 124.506 120.01 123.646 120.346 123.059C120.597 122.724 121.855 122.305 124.119 121.801L128.145 120.921C128.396 120.879 128.92 120.816 129.717 120.732C130.514 120.648 131.332 120.564 132.17 120.481C133.051 120.397 133.826 120.334 134.497 120.292C135.168 120.25 135.483 120.229 135.441 120.229H135.692C136.154 120.229 136.615 120.543 137.076 121.172C137.579 121.801 137.831 122.535 137.831 123.374C137.831 123.793 137.81 124.17 137.768 124.506C137.768 124.841 137.642 125.135 137.39 125.386C137.139 125.596 136.72 125.764 136.133 125.89C135.546 126.015 134.686 126.099 133.554 126.141C131.709 126.225 130.451 126.414 129.78 126.707H129.466C128.375 126.707 127.013 126.959 125.377 127.462C125.21 127.672 125.084 128.049 125 128.594C124.916 129.097 124.853 129.642 124.811 130.229C124.769 130.775 124.727 131.257 124.685 131.676C124.685 132.053 124.685 132.179 124.685 132.053C124.644 132.263 124.602 132.473 124.56 132.682C124.56 132.892 124.56 133.165 124.56 133.5C124.56 133.794 124.56 134.129 124.56 134.506C124.602 134.842 124.644 135.219 124.685 135.639C125.985 135.513 127.034 135.387 127.83 135.261C128.669 135.093 129.319 135.01 129.78 135.01C130.661 135.01 131.52 134.989 132.359 134.947C133.197 134.905 133.931 134.968 134.56 135.135C135.231 135.261 135.755 135.555 136.133 136.016C136.51 136.435 136.699 137.127 136.699 138.091C136.699 139.182 136.342 139.895 135.629 140.23C134.959 140.565 133.763 140.754 132.044 140.796C130.032 140.88 128.816 140.964 128.396 141.048C128.145 141.048 127.872 141.048 127.579 141.048C127.327 141.006 127.034 140.985 126.698 140.985C126.489 140.985 126.237 140.985 125.943 140.985C125.692 140.943 125.44 140.943 125.189 140.985C124.937 140.985 124.706 141.069 124.497 141.236C124.329 141.362 124.245 141.614 124.245 141.991C124.245 142.243 124.245 142.578 124.245 142.997C124.287 143.375 124.308 143.731 124.308 144.067C124.308 144.57 124.287 145.073 124.245 145.576C124.245 146.079 124.224 146.624 124.182 147.211C124.182 147.757 124.161 148.385 124.119 149.098C124.119 149.811 124.119 150.65 124.119 151.614C124.371 151.656 124.853 151.698 125.566 151.74C126.321 151.782 127.097 151.824 127.893 151.866C128.732 151.908 129.528 151.971 130.283 152.054C131.038 152.096 131.541 152.138 131.793 152.18C131.835 152.18 132.128 152.159 132.673 152.117C133.218 152.075 134.015 152.012 135.063 151.929C136.489 151.803 137.621 151.74 138.46 151.74H139.214Z" fill="#FB9C7F"/>
<path d="M40.4444 129.985C39.8573 130.237 39.2074 130.363 38.4946 130.363C38.2849 130.363 37.9705 130.342 37.5512 130.3C37.1738 130.258 36.7545 130.216 36.2932 130.174C35.832 130.09 35.3708 130.027 34.9095 129.985C34.4902 129.901 34.1757 129.859 33.9661 129.859C32.6243 129.859 31.3244 130.048 30.0665 130.425C30.3181 132.019 30.5278 133.57 30.6955 135.08C30.8632 136.589 31.01 138.015 31.1358 139.357C31.2615 140.657 31.3454 141.852 31.3873 142.942C31.4293 143.99 31.4502 144.892 31.4502 145.646C31.4502 147.533 31.4293 149.169 31.3873 150.552C31.3873 151.894 31.2825 153.026 31.0729 153.949C30.8632 154.829 30.5278 155.479 30.0665 155.898C29.6053 156.318 28.9344 156.527 28.0538 156.527C27.2152 156.527 26.5863 156.318 26.167 155.898C25.7896 155.437 25.517 154.913 25.3493 154.326C25.2235 153.697 25.1606 153.047 25.1606 152.376C25.2026 151.705 25.2235 151.139 25.2235 150.678C25.2235 149.881 25.2864 149.169 25.4122 148.54C25.538 147.869 25.6009 147.24 25.6009 146.653C25.6009 146.359 25.517 145.311 25.3493 143.508C25.1816 141.663 25.0977 139.357 25.0977 136.589C25.0977 135.667 24.9929 134.765 24.7832 133.885C24.6155 132.962 24.4268 132.082 24.2172 131.243L20.5063 131.495C18.9968 131.621 17.9485 131.851 17.3615 132.187C16.481 132.187 15.7262 131.935 15.0973 131.432C14.4683 130.929 14.1538 130.279 14.1538 129.482C14.1538 128.685 14.5102 127.805 15.223 126.84C15.4327 126.798 16.3761 126.652 18.0534 126.4C19.7306 126.107 22.1416 125.666 25.2864 125.079L28.4312 124.702C29.4376 124.576 30.402 124.513 31.3244 124.513H32.2679L39.6896 125.016C40.5702 125.52 41.0104 126.463 41.0104 127.847C41.0104 128.601 40.8218 129.314 40.4444 129.985Z" stroke="#FB9C7F" stroke-width="0.4" mask="url(#path-3-outside-3_6_30)"/>
<path d="M89.5881 140.477C89.043 142.657 87.4915 145.173 84.9338 148.024C84.5983 148.15 84.158 148.402 83.6129 148.779C83.1098 149.156 82.4389 149.555 81.6003 149.974C80.8036 150.351 79.8182 150.687 78.6441 150.98C77.4701 151.274 76.0864 151.421 74.493 151.421C71.3063 151.421 68.6437 150.582 66.5052 148.905C64.3667 147.186 62.7105 144.502 61.5364 140.854C61.4945 140.561 61.4735 140.267 61.4735 139.974C61.4735 139.68 61.4735 139.366 61.4735 139.03C61.4735 136.43 61.7461 134.145 62.2912 132.175C62.8363 130.162 63.57 128.422 64.4925 126.954C65.415 125.487 66.4633 124.25 67.6373 123.243C68.8533 122.237 70.1112 121.419 71.4111 120.79C73.5496 120.203 75.6461 119.91 77.7007 119.91C79.1683 119.91 80.6149 120.287 82.0405 121.042C83.4662 121.797 84.7241 122.866 85.8143 124.25C86.9464 125.633 87.8479 127.332 88.5188 129.344C89.2316 131.315 89.63 133.558 89.7139 136.074L89.5881 140.477ZM83.8016 140.288C84.0951 138.569 84.2419 137.227 84.2419 136.263C84.2419 134.669 84.0113 133.202 83.55 131.86C83.0888 130.518 82.5437 129.365 81.9147 128.401C81.2858 127.394 80.6149 126.619 79.9021 126.074C79.2312 125.487 78.6651 125.193 78.2039 125.193C75.9815 125.193 74.1576 125.696 72.7319 126.703C71.3482 127.667 70.258 128.841 69.4613 130.225C68.6646 131.608 68.1195 133.055 67.826 134.565C67.5325 136.074 67.3857 137.353 67.3857 138.401C67.3857 139.366 67.5325 140.309 67.826 141.232C68.1615 142.112 68.6227 142.909 69.2097 143.622C69.8387 144.293 70.5725 144.838 71.4111 145.257C72.2497 145.676 73.2141 145.886 74.3043 145.886C76.8621 145.886 78.8748 145.425 80.3423 144.502C81.8099 143.538 82.963 142.133 83.8016 140.288Z" stroke="#FB9C7F" stroke-width="0.4" mask="url(#path-3-outside-3_6_30)"/>
<path d="M139.214 151.74C140.598 152.453 141.29 153.48 141.29 154.822C141.29 155.702 141.059 156.331 140.598 156.709C140.179 157.086 139.55 157.338 138.711 157.463C137.915 157.631 136.908 157.715 135.692 157.715C134.476 157.757 133.114 157.82 131.604 157.904C131.101 157.736 129.256 157.568 126.069 157.401C125.608 157.443 125.168 157.463 124.748 157.463C124.329 157.505 123.931 157.526 123.553 157.526C121.289 157.526 119.738 157.191 118.899 156.52C118.689 154.843 118.522 153.291 118.396 151.866C118.312 150.44 118.27 149.14 118.27 147.966C118.27 146.121 118.333 144.528 118.459 143.186C118.627 141.802 118.71 140.565 118.71 139.475C118.71 138.133 118.647 137.085 118.522 136.33L118.899 129.726C119.067 128.133 119.255 126.77 119.465 125.638C119.717 124.506 120.01 123.646 120.346 123.059C120.597 122.724 121.855 122.305 124.119 121.801L128.145 120.921C128.396 120.879 128.92 120.816 129.717 120.732C130.514 120.648 131.332 120.564 132.17 120.481C133.051 120.397 133.826 120.334 134.497 120.292C135.168 120.25 135.483 120.229 135.441 120.229H135.692C136.154 120.229 136.615 120.543 137.076 121.172C137.579 121.801 137.831 122.535 137.831 123.374C137.831 123.793 137.81 124.17 137.768 124.506C137.768 124.841 137.642 125.135 137.39 125.386C137.139 125.596 136.72 125.764 136.133 125.89C135.546 126.015 134.686 126.099 133.554 126.141C131.709 126.225 130.451 126.414 129.78 126.707H129.466C128.375 126.707 127.013 126.959 125.377 127.462C125.21 127.672 125.084 128.049 125 128.594C124.916 129.097 124.853 129.642 124.811 130.229C124.769 130.775 124.727 131.257 124.685 131.676C124.685 132.053 124.685 132.179 124.685 132.053C124.644 132.263 124.602 132.473 124.56 132.682C124.56 132.892 124.56 133.165 124.56 133.5C124.56 133.794 124.56 134.129 124.56 134.506C124.602 134.842 124.644 135.219 124.685 135.639C125.985 135.513 127.034 135.387 127.83 135.261C128.669 135.093 129.319 135.01 129.78 135.01C130.661 135.01 131.52 134.989 132.359 134.947C133.197 134.905 133.931 134.968 134.56 135.135C135.231 135.261 135.755 135.555 136.133 136.016C136.51 136.435 136.699 137.127 136.699 138.091C136.699 139.182 136.342 139.895 135.629 140.23C134.959 140.565 133.763 140.754 132.044 140.796C130.032 140.88 128.816 140.964 128.396 141.048C128.145 141.048 127.872 141.048 127.579 141.048C127.327 141.006 127.034 140.985 126.698 140.985C126.489 140.985 126.237 140.985 125.943 140.985C125.692 140.943 125.44 140.943 125.189 140.985C124.937 140.985 124.706 141.069 124.497 141.236C124.329 141.362 124.245 141.614 124.245 141.991C124.245 142.243 124.245 142.578 124.245 142.997C124.287 143.375 124.308 143.731 124.308 144.067C124.308 144.57 124.287 145.073 124.245 145.576C124.245 146.079 124.224 146.624 124.182 147.211C124.182 147.757 124.161 148.385 124.119 149.098C124.119 149.811 124.119 150.65 124.119 151.614C124.371 151.656 124.853 151.698 125.566 151.74C126.321 151.782 127.097 151.824 127.893 151.866C128.732 151.908 129.528 151.971 130.283 152.054C131.038 152.096 131.541 152.138 131.793 152.18C131.835 152.18 132.128 152.159 132.673 152.117C133.218 152.075 134.015 152.012 135.063 151.929C136.489 151.803 137.621 151.74 138.46 151.74H139.214Z" stroke="#FB9C7F" stroke-width="0.4" mask="url(#path-3-outside-3_6_30)"/>
<path d="M2 57.475C16.3591 57.475 30.687 57.6065 45.0372 58.1453C48.7283 58.2838 52.3182 58.4087 55.9521 57.6665C59.8459 56.8712 63.6502 55.6648 67.621 55.2729C72.687 54.773 77.9209 55.1224 82.9521 55.7636C84.9707 56.0209 86.9833 56.3817 89.008 56.5894C91.4874 56.8437 94.2877 56.3229 96.7394 56.1346C101.263 55.7873 105.764 55.195 110.287 54.866C113.539 54.6295 116.801 54.6521 120.053 54.4112C125.592 54.0009 131.3 53.6378 136.82 54.4711C141.168 55.1273 145.396 55.1054 149.782 55.1054" stroke="#18191F" stroke-width="4" stroke-linecap="round"/>
<path d="M2.21545 113.003C16.5017 112.335 30.7071 108.965 45.0612 109.771C52.9555 110.215 60.9064 109.902 68.8059 109.771C74.2965 109.681 79.845 109.662 85.3218 109.185C92.5871 108.551 99.7344 107.568 107.032 107.294C112.125 107.102 116.871 107.444 121.872 108.431C125.967 109.239 129.87 109.34 134.032 109.34C142.729 109.34 144.065 109.34 152.762 109.34" stroke="#18191F" stroke-width="4" stroke-linecap="round"/>
<path d="M53.5391 4.36969C52.9721 18.1938 52.0667 32.0237 51.6242 45.8511C51.3547 54.2747 51.7721 62.7393 51.8037 71.1636C51.8697 88.7577 52.0627 106.375 52.7971 123.955C52.9627 127.919 52.8574 131.886 53.0125 135.851C53.2281 141.363 53.8633 146.754 54.4965 152.223C54.9495 156.135 54.8317 160.069 54.8317 164" stroke="#18191F" stroke-width="4" stroke-linecap="round"/>
<path d="M94.2021 2C94.2021 5.61436 94.2021 9.22872 94.2021 12.8431C94.2021 20.5777 94.9178 28.2421 95.0399 35.9654C95.1227 41.2009 95.0779 46.3467 95.5426 51.5718C96.2438 59.4562 97.0164 67.3398 97.8764 75.2088C98.9017 84.5909 99.3724 94.0614 99.3724 103.501C99.3724 117.068 100.798 130.533 101.527 144.061C101.782 148.805 102.553 153.586 102.604 158.327C102.612 159.141 102.455 160.04 102.819 160.769" stroke="#18191F" stroke-width="4" stroke-linecap="round"/>
</svg>
