<svg width="250" height="57" viewBox="0 0 250 57" fill="none" xmlns="http://www.w3.org/2000/svg">
<path d="M113.25 25.7906C131.474 7.58405 179.725 6.61339 211.929 6.56164C222.818 9.09543 235.744 12.9699 242.23 17.971C260.864 32.3392 219.933 41.2312 204.699 44.4941C168.097 52.3336 94.0002 45.0224 113.25 25.7906Z" fill="#FFBD12"/>
<path d="M8.06095 22.167C8.06095 18.872 16.1754 19.4264 18.1625 20.1467C23.8253 22.1995 26.3539 32.832 21.9338 37.2521C19.1528 40.0331 12.0949 39.967 8.66705 38.4979C4.61752 36.7624 2.61078 33.7157 2 29.4402" stroke="#18191F" stroke-width="4" stroke-linecap="round"/>
<path d="M6.24268 22.7731C6.24268 19.5779 7.02849 18.2309 8.66706 15.5" stroke="#18191F" stroke-width="4" stroke-linecap="round"/>
<path d="M6.5943 22.9309C8.93575 22.9309 10.9986 23.0694 13.0658 24.2064C13.495 24.4425 13.9684 24.7609 14.3601 24.9567" stroke="#18191F" stroke-width="4" stroke-linecap="round"/>
<path d="M55.3689 24.04C55.3102 24.568 55.2369 25.0373 55.1489 25.448C55.0902 25.8587 54.9582 26.2547 54.7529 26.636C54.5475 26.988 54.2689 27.3693 53.9169 27.78C53.5942 28.1613 53.1689 28.6013 52.6409 29.1C51.2622 30.3907 49.7369 31.1387 48.0649 31.344C47.6835 31.4907 47.1849 31.6667 46.5689 31.872C45.9529 32.048 45.2195 32.2533 44.3689 32.488L44.5009 35.348C44.5595 35.7587 44.6035 36.1693 44.6329 36.58C44.6622 36.9907 44.6769 37.4453 44.6769 37.944C44.6769 38.296 44.6769 38.6773 44.6769 39.088C44.6769 39.4987 44.6182 39.88 44.5009 40.232C44.4129 40.584 44.2222 40.8773 43.9289 41.112C43.6649 41.3467 43.2689 41.464 42.7409 41.464C42.1835 41.464 41.7729 41.3613 41.5089 41.156C41.2449 40.9507 41.0689 40.6573 40.9809 40.276C40.8929 39.924 40.8342 39.4987 40.8049 39C40.8049 38.5013 40.7609 37.9733 40.6729 37.416V37.46C40.6435 37.0787 40.6142 36.624 40.5849 36.096C40.5555 35.6267 40.5262 35.0547 40.4969 34.38C40.4675 33.676 40.4235 32.8547 40.3649 31.916V31.652C40.3649 31.476 40.3502 31.2413 40.3209 30.948C40.3209 30.6547 40.3062 30.3467 40.2769 30.024C40.2475 29.7013 40.2182 29.4227 40.1889 29.188C40.1889 28.924 40.1889 28.748 40.1889 28.66C40.1889 28.484 40.1889 28.176 40.1889 27.736C40.2182 27.2667 40.2329 26.768 40.2329 26.24C40.2622 25.712 40.2769 25.2133 40.2769 24.744C40.3062 24.2453 40.3209 23.864 40.3209 23.6C40.3209 23.1307 40.2915 22.7053 40.2329 22.324C40.2035 21.9427 40.1595 21.5907 40.1009 21.268C40.1009 21.2093 40.1009 21.0187 40.1009 20.696C40.1302 20.3733 40.1595 20.0213 40.1889 19.64C40.2182 19.2293 40.2622 18.8333 40.3209 18.452C40.3795 18.0413 40.4529 17.704 40.5409 17.44C41.3329 17.0587 42.2862 16.868 43.4009 16.868H43.7529C45.0142 16.4867 46.1875 16.296 47.2729 16.296C47.6835 16.296 48.8422 16.472 50.7489 16.824L52.6849 17.88C53.2129 18.2027 53.6382 18.54 53.9609 18.892C54.3129 19.2147 54.5915 19.6107 54.7969 20.08C55.0022 20.5493 55.1489 21.1067 55.2369 21.752C55.3249 22.368 55.3689 23.1307 55.3689 24.04ZM51.2329 24.656C51.3209 24.0987 51.3649 23.6 51.3649 23.16C51.3649 22.368 51.0422 21.6493 50.3969 21.004C49.7515 20.3293 48.6955 19.992 47.2289 19.992C46.5542 19.992 45.5275 20.2267 44.1489 20.696C44.2075 21.2533 44.2515 21.928 44.2809 22.72C44.3102 23.4827 44.3249 24.3773 44.3249 25.404C44.2955 25.4627 44.2809 25.756 44.2809 26.284C44.2809 26.548 44.2809 26.8707 44.2809 27.252C44.2809 27.604 44.2955 28.0147 44.3249 28.484C44.5889 28.4547 44.8822 28.396 45.2049 28.308C45.5569 28.22 45.8795 28.132 46.1729 28.044C46.4662 27.9267 46.7155 27.824 46.9209 27.736C47.1262 27.648 47.2289 27.604 47.2289 27.604C49.3409 27.1053 50.6755 26.1227 51.2329 24.656ZM65.4634 15.856C65.4048 16.5893 65.2288 17.4253 64.9354 18.364C64.6714 19.2733 64.4808 20.0213 64.3634 20.608V21.136C64.3634 21.5467 64.3341 21.9867 64.2754 22.456C64.2168 22.9253 64.1581 23.38 64.0994 23.82C64.0408 24.2307 63.9674 24.5973 63.8794 24.92C63.8208 25.2427 63.7914 25.4627 63.7914 25.58C63.7621 25.7267 63.7474 26.0787 63.7474 26.636C63.7474 27.1933 63.7474 27.9413 63.7474 28.88V29.408C63.7474 29.9947 63.7181 30.508 63.6594 30.948C63.6008 31.388 63.5274 31.784 63.4394 32.136L63.8354 35.436C63.9528 35.7587 64.3488 36.2427 65.0234 36.888C64.8768 37.416 64.4954 37.9 63.8794 38.34C63.2634 38.7507 62.6328 38.956 61.9874 38.956C61.1074 38.956 60.4328 38.5453 59.9634 37.724C59.5234 36.8733 59.3034 35.4653 59.3034 33.5C59.3034 33.1773 59.3181 32.8987 59.3474 32.664C59.4061 32.4293 59.4354 32.136 59.4354 31.784C59.4354 31.08 59.3474 30.2 59.1714 29.144C59.3181 28.8213 59.4208 28.4107 59.4794 27.912C59.5674 27.4133 59.6261 26.944 59.6554 26.504C59.6848 26.0347 59.6994 25.6387 59.6994 25.316C59.6994 24.9933 59.6994 24.8613 59.6994 24.92C59.6994 24.9493 59.7288 24.744 59.7874 24.304C59.8754 23.864 59.9634 23.3507 60.0514 22.764C60.1394 22.148 60.2128 21.5173 60.2714 20.872C60.3594 20.2267 60.4034 19.7133 60.4034 19.332V18.98L61.1514 15.284C61.5328 14.6387 62.1928 14.316 63.1314 14.316C64.1581 14.316 64.9354 14.8293 65.4634 15.856ZM85.9568 33.808C86.4848 34.16 86.7488 34.5853 86.7488 35.084C86.7488 35.348 86.6754 35.6267 86.5288 35.92C86.3821 36.184 86.1914 36.4333 85.9568 36.668C85.7221 36.8733 85.4728 37.0493 85.2088 37.196C84.9448 37.3427 84.6808 37.416 84.4168 37.416C84.1821 37.328 83.9034 37.1813 83.5808 36.976C83.2581 36.7413 82.9354 36.492 82.6128 36.228C82.2901 35.9347 81.9821 35.612 81.6888 35.26C81.4248 34.908 81.2194 34.556 81.0728 34.204L80.7648 34.952C80.2074 36.008 79.3274 37.0053 78.1248 37.944C76.6581 38.208 75.8074 38.34 75.5728 38.34C75.0154 38.34 74.3408 38.252 73.5488 38.076L71.1288 36.36C70.0728 35.3627 69.5448 33.9987 69.5448 32.268C69.5448 31.652 69.6328 30.9773 69.8088 30.244C70.0141 29.4813 70.2928 28.7187 70.6448 27.956C71.0261 27.1933 71.4808 26.4453 72.0088 25.712C72.5368 24.9787 73.1528 24.3187 73.8568 23.732C74.7074 23.4093 75.5288 23.1453 76.3208 22.94C77.1128 22.7053 77.7141 22.5587 78.1248 22.5C78.6821 21.884 79.3421 21.576 80.1048 21.576C80.5448 21.576 80.9261 21.796 81.2488 22.236C81.6008 22.6467 81.8941 23.1747 82.1288 23.82C82.3928 24.4653 82.5981 25.184 82.7448 25.976C82.8914 26.7387 82.9941 27.472 83.0528 28.176L83.6248 30.508C83.8008 31.2413 84.0794 31.872 84.4608 32.4C84.8714 32.928 85.3701 33.3973 85.9568 33.808ZM79.2688 28.924C79.2101 28.8947 78.9901 27.9707 78.6088 26.152C78.4621 26.152 78.2421 26.152 77.9488 26.152C77.6554 26.152 77.3034 26.24 76.8928 26.416C76.5114 26.5627 76.0861 26.8413 75.6168 27.252C75.1768 27.6333 74.7514 28.22 74.3408 29.012C73.7248 30.156 73.4168 31.3 73.4168 32.444C73.9154 33.412 74.6928 34.1747 75.7488 34.732C76.0714 34.644 76.3354 34.5413 76.5408 34.424C76.7754 34.3067 76.9808 34.1453 77.1568 33.94C77.3328 33.7347 77.4941 33.4853 77.6408 33.192C77.8168 32.8693 78.0074 32.4733 78.2128 32.004C78.5941 31.3293 78.8581 30.7427 79.0048 30.244C79.1808 29.716 79.2688 29.276 79.2688 28.924ZM104.517 26.064C104.488 26.7093 104.458 27.164 104.429 27.428C104.4 27.692 104.312 27.9853 104.165 28.308C104.048 28.6013 103.842 29.0413 103.549 29.628C103.256 30.2147 102.845 31.1533 102.317 32.444C102.082 33.8227 101.496 35.1867 100.557 36.536C100.088 37.9733 99.5595 39 98.9729 39.616C98.8849 39.88 98.6795 40.2907 98.3569 40.848C98.0342 41.4053 97.6822 41.992 97.3009 42.608C96.9489 43.2533 96.5969 43.8693 96.2449 44.456C95.9222 45.072 95.6875 45.5413 95.5409 45.864C95.4822 46.0107 95.3502 46.26 95.1449 46.612C94.9395 46.9933 94.6902 47.3747 94.3969 47.756C94.1329 48.1373 93.8102 48.4747 93.4289 48.768C93.0769 49.0907 92.7249 49.252 92.3729 49.252C91.8449 49.252 91.3462 49.076 90.8769 48.724C90.4369 48.4013 90.2169 48.0053 90.2169 47.536C90.2169 47.3013 90.3195 46.9933 90.5249 46.612C90.7302 46.26 90.9795 45.864 91.2729 45.424C91.5662 45.0133 91.8742 44.5733 92.1969 44.104C92.5195 43.664 92.7982 43.2533 93.0329 42.872C93.1209 42.6373 93.2822 42.2853 93.5169 41.816C93.7515 41.3467 94.0009 40.848 94.2649 40.32C94.5582 39.8213 94.8222 39.3373 95.0569 38.868C95.3209 38.3693 95.4969 37.988 95.5849 37.724C95.4969 37.6653 95.3355 37.5187 95.1009 37.284C94.8662 37.02 94.6022 36.756 94.3089 36.492C94.0449 36.1987 93.7662 35.92 93.4729 35.656C93.1795 35.392 92.9155 35.2013 92.6809 35.084C92.3582 34.6147 92.0795 34.248 91.8449 33.984C91.6102 33.72 91.3902 33.5 91.1849 33.324C91.0089 33.148 90.8182 32.972 90.6129 32.796C90.4075 32.62 90.1729 32.3707 89.9089 32.048C89.6742 31.7253 89.3662 31.3 88.9849 30.772C88.6329 30.244 88.2075 29.54 87.7089 28.66C87.6795 28.572 87.6649 28.44 87.6649 28.264C87.6649 27.6773 87.8702 27.1493 88.2809 26.68C88.7209 26.2107 89.1755 25.976 89.6449 25.976C89.9675 25.976 90.3342 26.1373 90.7449 26.46C91.1555 26.7533 91.6249 27.296 92.1529 28.088C92.7102 28.968 93.1355 29.6133 93.4289 30.024C93.7515 30.4347 94.0155 30.772 94.2209 31.036C94.4555 31.2707 94.6902 31.5053 94.9249 31.74C95.1889 31.9453 95.5555 32.2973 96.0249 32.796C96.3769 32.972 96.8462 33.3973 97.4329 34.072L99.0169 29.804C99.3395 29.0413 99.6622 28.264 99.9849 27.472C100.337 26.6507 100.572 25.8733 100.689 25.14C101.334 24.7 101.98 24.48 102.625 24.48C103.71 24.48 104.341 25.008 104.517 26.064ZM140.446 33.808C140.974 34.16 141.238 34.5853 141.238 35.084C141.238 35.348 141.165 35.6267 141.018 35.92C140.872 36.184 140.681 36.4333 140.446 36.668C140.212 36.8733 139.962 37.0493 139.698 37.196C139.434 37.3427 139.17 37.416 138.906 37.416C138.672 37.328 138.393 37.1813 138.07 36.976C137.748 36.7413 137.425 36.492 137.102 36.228C136.78 35.9347 136.472 35.612 136.178 35.26C135.914 34.908 135.709 34.556 135.562 34.204L135.254 34.952C134.697 36.008 133.817 37.0053 132.614 37.944C131.148 38.208 130.297 38.34 130.062 38.34C129.505 38.34 128.83 38.252 128.038 38.076L125.618 36.36C124.562 35.3627 124.034 33.9987 124.034 32.268C124.034 31.652 124.122 30.9773 124.298 30.244C124.504 29.4813 124.782 28.7187 125.134 27.956C125.516 27.1933 125.97 26.4453 126.498 25.712C127.026 24.9787 127.642 24.3187 128.346 23.732C129.197 23.4093 130.018 23.1453 130.81 22.94C131.602 22.7053 132.204 22.5587 132.614 22.5C133.172 21.884 133.832 21.576 134.594 21.576C135.034 21.576 135.416 21.796 135.738 22.236C136.09 22.6467 136.384 23.1747 136.618 23.82C136.882 24.4653 137.088 25.184 137.234 25.976C137.381 26.7387 137.484 27.472 137.542 28.176L138.114 30.508C138.29 31.2413 138.569 31.872 138.95 32.4C139.361 32.928 139.86 33.3973 140.446 33.808ZM133.758 28.924C133.7 28.8947 133.48 27.9707 133.098 26.152C132.952 26.152 132.732 26.152 132.438 26.152C132.145 26.152 131.793 26.24 131.382 26.416C131.001 26.5627 130.576 26.8413 130.106 27.252C129.666 27.6333 129.241 28.22 128.83 29.012C128.214 30.156 127.906 31.3 127.906 32.444C128.405 33.412 129.182 34.1747 130.238 34.732C130.561 34.644 130.825 34.5413 131.03 34.424C131.265 34.3067 131.47 34.1453 131.646 33.94C131.822 33.7347 131.984 33.4853 132.13 33.192C132.306 32.8693 132.497 32.4733 132.702 32.004C133.084 31.3293 133.348 30.7427 133.494 30.244C133.67 29.716 133.758 29.276 133.758 28.924ZM159.05 24.392C159.138 24.8027 159.182 25.316 159.182 25.932C159.182 26.4307 159.153 27.0173 159.094 27.692C159.036 28.3373 158.948 29.056 158.83 29.848C158.86 29.936 158.874 30.0387 158.874 30.156C158.874 30.2733 158.874 30.4053 158.874 30.552C158.874 30.8747 158.845 31.256 158.786 31.696C158.757 32.1067 158.713 32.5907 158.654 33.148C158.684 33.2947 158.698 33.4413 158.698 33.588C158.698 33.7347 158.698 33.9107 158.698 34.116C158.698 34.7907 158.654 35.6267 158.566 36.624C158.478 37.6213 158.361 38.8093 158.214 40.188C157.804 43.5907 156.41 46.0693 154.034 47.624C153.184 47.9467 152.333 48.1813 151.482 48.328C150.661 48.504 149.825 48.592 148.974 48.592C147.86 48.592 146.114 48.108 143.738 47.14L141.538 45.292C141.098 44.94 140.79 44.6613 140.614 44.456C140.468 44.2507 140.394 44.0013 140.394 43.708C140.394 43.092 140.57 42.5493 140.922 42.08C141.274 41.64 141.744 41.42 142.33 41.42C142.712 41.42 143.137 41.5373 143.606 41.772L145.806 43.62C146.862 44.324 148.05 44.6907 149.37 44.72C149.517 44.7493 149.708 44.72 149.942 44.632C150.177 44.5733 150.456 44.5 150.778 44.412L152.23 44.016C153.286 43.3413 153.976 42.0947 154.298 40.276C154.328 40.012 154.357 39.6893 154.386 39.308C154.445 38.604 154.533 37.6067 154.65 36.316C154.533 36.3747 154.269 36.492 153.858 36.668C153.448 36.8147 152.934 36.9907 152.318 37.196C151.732 37.372 151.042 37.5333 150.25 37.68C149.488 37.8267 148.681 37.9 147.83 37.9C147.684 37.9 147.522 37.8707 147.346 37.812C147.2 37.724 146.994 37.592 146.73 37.416C146.466 37.24 146.144 37.0053 145.762 36.712C145.41 36.4187 144.97 36.0373 144.442 35.568L143.386 33.588C143.122 33.0893 142.932 32.5907 142.814 32.092C142.726 31.564 142.682 31.0507 142.682 30.552C142.682 29.7307 142.99 28.9093 143.606 28.088C144.252 27.2373 145.044 26.4747 145.982 25.8C146.95 25.1253 147.992 24.5827 149.106 24.172C150.221 23.732 151.248 23.512 152.186 23.512C152.626 23.512 153.052 23.5413 153.462 23.6C153.902 23.6587 154.562 23.82 155.442 24.084L155.662 23.556C156.044 23.292 156.513 23.16 157.07 23.16C158.185 23.16 158.845 23.5707 159.05 24.392ZM154.87 28.088C154.577 27.8827 154.24 27.736 153.858 27.648C153.506 27.56 153.154 27.472 152.802 27.384C152.421 27.4427 151.981 27.5307 151.482 27.648C150.984 27.736 150.426 27.8533 149.81 28C147.874 29.1147 146.906 30.1267 146.906 31.036C146.906 31.5347 147.082 32.0333 147.434 32.532C147.786 33.0013 148.285 33.4853 148.93 33.984C149.37 33.9547 149.84 33.9107 150.338 33.852C150.837 33.764 151.336 33.632 151.834 33.456C152.333 33.28 152.817 33.0307 153.286 32.708C153.756 32.356 154.21 31.8867 154.65 31.3C154.709 30.8013 154.753 30.332 154.782 29.892C154.841 29.452 154.87 29.0267 154.87 28.616V28.088ZM179.594 33.808C180.122 34.16 180.386 34.5853 180.386 35.084C180.386 35.348 180.313 35.6267 180.166 35.92C180.02 36.184 179.829 36.4333 179.594 36.668C179.36 36.8733 179.11 37.0493 178.846 37.196C178.582 37.3427 178.318 37.416 178.054 37.416C177.82 37.328 177.541 37.1813 177.218 36.976C176.896 36.7413 176.573 36.492 176.25 36.228C175.928 35.9347 175.62 35.612 175.326 35.26C175.062 34.908 174.857 34.556 174.71 34.204L174.402 34.952C173.845 36.008 172.965 37.0053 171.762 37.944C170.296 38.208 169.445 38.34 169.21 38.34C168.653 38.34 167.978 38.252 167.186 38.076L164.766 36.36C163.71 35.3627 163.182 33.9987 163.182 32.268C163.182 31.652 163.27 30.9773 163.446 30.244C163.652 29.4813 163.93 28.7187 164.282 27.956C164.664 27.1933 165.118 26.4453 165.646 25.712C166.174 24.9787 166.79 24.3187 167.494 23.732C168.345 23.4093 169.166 23.1453 169.958 22.94C170.75 22.7053 171.352 22.5587 171.762 22.5C172.32 21.884 172.98 21.576 173.742 21.576C174.182 21.576 174.564 21.796 174.886 22.236C175.238 22.6467 175.532 23.1747 175.766 23.82C176.03 24.4653 176.236 25.184 176.382 25.976C176.529 26.7387 176.632 27.472 176.69 28.176L177.262 30.508C177.438 31.2413 177.717 31.872 178.098 32.4C178.509 32.928 179.008 33.3973 179.594 33.808ZM172.906 28.924C172.848 28.8947 172.628 27.9707 172.246 26.152C172.1 26.152 171.88 26.152 171.586 26.152C171.293 26.152 170.941 26.24 170.53 26.416C170.149 26.5627 169.724 26.8413 169.254 27.252C168.814 27.6333 168.389 28.22 167.978 29.012C167.362 30.156 167.054 31.3 167.054 32.444C167.553 33.412 168.33 34.1747 169.386 34.732C169.709 34.644 169.973 34.5413 170.178 34.424C170.413 34.3067 170.618 34.1453 170.794 33.94C170.97 33.7347 171.132 33.4853 171.278 33.192C171.454 32.8693 171.645 32.4733 171.85 32.004C172.232 31.3293 172.496 30.7427 172.642 30.244C172.818 29.716 172.906 29.276 172.906 28.924ZM189.618 18.276C189.677 18.5107 189.706 18.7307 189.706 18.936C189.706 19.8747 189.428 20.6667 188.87 21.312C187.99 21.664 187.11 21.84 186.23 21.84C185.673 21.488 185.204 21.092 184.822 20.652C184.47 20.1827 184.294 19.728 184.294 19.288C184.294 18.9067 184.734 17.968 185.614 16.472C185.996 16.5307 186.392 16.5747 186.802 16.604C187.242 16.6333 187.638 16.7067 187.99 16.824C188.372 16.9413 188.694 17.1173 188.958 17.352C189.252 17.5573 189.472 17.8653 189.618 18.276ZM188.21 25.624V26.196C188.21 26.3427 188.21 26.504 188.21 26.68C188.21 26.856 188.181 27.0173 188.122 27.164L187.77 29.144V29.54C187.77 29.716 187.756 29.9507 187.726 30.244C187.697 30.5373 187.653 30.8307 187.594 31.124C187.565 31.4173 187.536 31.696 187.506 31.96C187.477 32.224 187.462 32.444 187.462 32.62C187.462 32.7667 187.462 32.884 187.462 32.972C187.492 33.06 187.506 33.1773 187.506 33.324C187.506 33.588 187.477 33.8813 187.418 34.204C187.36 34.4973 187.33 34.8347 187.33 35.216C187.33 35.568 187.374 35.9347 187.462 36.316C187.14 37.636 186.465 38.296 185.438 38.296C184.001 38.296 183.282 36.9467 183.282 34.248C183.282 33.3387 183.326 32.444 183.414 31.564C183.502 30.6547 183.605 29.8187 183.722 29.056C183.84 28.2933 183.957 27.6333 184.074 27.076C184.221 26.4893 184.338 26.0347 184.426 25.712C184.866 25.0667 185.482 24.744 186.274 24.744C187.037 24.744 187.682 25.0373 188.21 25.624ZM208.697 34.116V34.468C208.697 34.644 208.697 34.9667 208.697 35.436C208.726 35.876 208.682 36.3307 208.565 36.8C208.477 37.2693 208.286 37.6947 207.993 38.076C207.699 38.428 207.259 38.604 206.673 38.604C205.529 38.604 204.854 38.1493 204.649 37.24C204.678 37.064 204.693 36.8733 204.693 36.668C204.693 36.4333 204.693 36.184 204.693 35.92C204.693 35.8027 204.693 35.3773 204.693 34.644C204.693 33.8813 204.663 33.06 204.605 32.18C204.575 31.3 204.487 30.4787 204.341 29.716C204.194 28.924 203.974 28.4253 203.681 28.22C203.006 27.7507 202.405 27.516 201.877 27.516C201.173 27.516 200.571 27.736 200.073 28.176C199.603 28.5867 199.207 29.408 198.885 30.64C198.855 31.0507 198.826 31.52 198.797 32.048C198.767 32.5467 198.723 33.1187 198.665 33.764C198.665 34.2627 198.679 34.82 198.709 35.436C198.738 36.0227 198.782 36.6973 198.841 37.46C198.841 38.0173 198.621 38.4867 198.181 38.868C197.741 39.22 197.242 39.396 196.685 39.396C196.245 39.396 195.893 39.2787 195.629 39.044C195.365 38.8093 195.159 38.5013 195.013 38.12C194.895 37.7387 194.807 37.328 194.749 36.888C194.719 36.448 194.705 36.008 194.705 35.568C194.705 35.2453 194.719 34.9227 194.749 34.6C194.778 34.248 194.822 33.896 194.881 33.544L195.233 29.32L195.585 27.208C195.526 26.856 195.409 26.4747 195.233 26.064C195.057 25.6533 194.969 25.3307 194.969 25.096C194.969 24.5973 195.159 24.1427 195.541 23.732C195.951 23.3213 196.45 23.116 197.037 23.116C197.447 23.116 197.755 23.204 197.961 23.38C198.166 23.5267 198.503 23.908 198.973 24.524C199.559 24.26 200.029 24.0987 200.381 24.04C200.733 23.952 201.143 23.908 201.613 23.908C203.138 23.908 204.473 24.2747 205.617 25.008C206.79 25.712 207.523 26.9 207.817 28.572C207.905 29.188 207.978 29.7013 208.037 30.112C208.125 30.5227 208.198 30.9187 208.257 31.3C208.315 31.6813 208.374 32.092 208.433 32.532C208.491 32.9427 208.579 33.4707 208.697 34.116Z" fill="#18191F"/>
<path d="M229.327 14.886C232.128 15.5658 234.867 16.4858 237.511 17.6357C240.239 18.7945 242.79 20.3346 245.087 22.2099C245.669 22.7055 246.226 23.2315 246.753 23.7856L246.954 23.9923L247.161 24.2411L247.57 24.7435C247.834 25.085 248.051 25.4643 248.284 25.8279C249.11 27.3408 249.523 29.0442 249.484 30.7673C249.444 32.4905 248.952 34.1729 248.057 35.6462L247.896 35.921L247.71 36.1804L247.333 36.6956C247.062 37.0218 246.773 37.3374 246.475 37.6378L245.997 38.0593C245.841 38.2034 245.675 38.3354 245.5 38.4543C245.176 38.6921 244.84 38.9132 244.494 39.1169C239.258 42.2548 233.545 44.3898 227.833 46.0607C224.018 47.1861 220.164 48.0895 216.318 48.9213C214.395 49.3385 212.471 49.7226 210.547 50.125C208.621 50.5161 206.689 50.8781 204.76 51.2561C197.032 52.7101 189.247 53.9202 181.411 54.779C173.566 55.6596 165.678 56.1133 157.783 56.1379C149.865 56.1624 141.955 55.6201 134.115 54.5152C133.509 54.4468 132.909 54.3282 132.307 54.2322L130.502 53.9257C129.299 53.7158 128.098 53.5275 126.894 53.2727C124.427 52.8038 122.005 52.1259 119.653 51.2463C118.447 50.7783 117.279 50.2178 116.159 49.5696C115.878 49.4044 115.596 49.2395 115.324 49.0563C115.037 48.8808 114.761 48.6883 114.497 48.4798L113.671 47.8259C113.414 47.5863 113.17 47.3306 112.922 47.0814C112.672 46.8325 112.443 46.5638 112.237 46.278C112.012 46.0071 111.807 45.7201 111.623 45.4194C111.442 45.1173 111.258 44.8169 111.086 44.5107L110.652 43.5497C110.134 42.2472 109.841 40.8661 109.785 39.4653C109.76 38.0681 109.968 36.6765 110.4 35.3476C110.845 34.0201 111.524 32.7828 112.404 31.6942L113.091 30.904C113.343 30.6637 113.603 30.4326 113.861 30.1988C113.988 30.0882 114.125 29.9536 114.245 29.864L114.609 29.5825L115.337 29.0196C115.823 28.6462 116.305 28.2651 116.796 27.8984L118.289 26.8236C120.278 25.3878 122.342 24.0648 124.427 22.779C125.483 22.1602 126.536 21.5348 127.604 20.9376L129.217 20.0625L130.023 19.6251L130.842 19.2107C135.195 16.9895 139.681 15.0368 144.273 13.3635C148.858 11.7008 153.529 10.286 158.267 9.12501C167.73 6.80059 177.374 5.38479 187.034 4.53405C192.865 4.01202 198.767 3.80707 204.53 3.71653C210.052 3.63827 213.625 3.92492 215.84 4.32274C217.453 4.61247 217.448 4.93294 216.067 5.21603C214.687 5.49911 211.93 5.73774 208.038 5.92469C203.113 6.15836 197.736 6.38897 192.658 6.70774C180.974 7.44343 169.336 8.94086 158.057 11.8709C146.8 14.8011 135.887 19.159 126.061 25.2801C123.36 26.9812 120.697 28.851 118.142 30.8191C117.51 31.3189 116.879 31.8175 116.249 32.315C115.961 32.5588 115.735 32.7879 115.472 33.0194C115.228 33.2609 115.024 33.5363 114.794 33.7876C113.959 34.8524 113.385 36.0982 113.119 37.425C112.92 38.4757 112.91 39.5533 113.089 40.6075L113.166 41.0006C113.185 41.1328 113.215 41.263 113.258 41.3896L113.498 42.1531L113.824 42.8822L113.905 43.065L114.009 43.2353L114.215 43.5773C114.284 43.6908 114.348 43.8078 114.42 43.9195L114.667 44.2331C114.82 44.4508 114.99 44.6559 115.176 44.8466L115.739 45.4149L116.373 45.9093C116.595 46.0853 116.827 46.2464 117.07 46.3914C117.311 46.5536 117.567 46.6952 117.817 46.8434C118.323 47.1353 118.849 47.3977 119.382 47.6501C121.595 48.6178 123.907 49.3423 126.276 49.8107C128.683 50.3402 131.182 50.6625 133.637 51.0885C134.872 51.2768 136.115 51.4096 137.353 51.5729L139.212 51.8071C139.833 51.8759 140.457 51.9227 141.079 51.9817L144.813 52.3168L148.557 52.5312C149.182 52.5626 149.805 52.6142 150.43 52.6292L152.304 52.6797C153.554 52.7058 154.803 52.7662 156.054 52.767C158.555 52.7617 161.054 52.7903 163.554 52.6989C178.424 52.3362 193.299 50.1615 207.977 47.336C214.522 46.0442 221.079 44.7679 227.405 42.9144C230.559 42.0014 233.651 40.8885 236.663 39.5825C237.402 39.2378 238.155 38.9165 238.877 38.5416C239.241 38.3584 239.608 38.1813 239.969 37.9931L241.04 37.4099C241.4 37.2207 241.749 37.0141 242.097 36.8044C242.441 36.5973 242.804 36.3886 243.133 36.1831C243.421 35.9954 243.695 35.787 243.953 35.5596C244.086 35.4505 244.212 35.3337 244.331 35.21L244.676 34.8276C245.559 33.7555 246.085 32.4344 246.181 31.0487C246.232 30.3614 246.17 29.6703 245.996 29.0033C245.976 28.9202 245.961 28.8351 245.936 28.7531L245.848 28.5118C245.786 28.3528 245.745 28.1843 245.668 28.0317L245.441 27.5708C245.363 27.4188 245.274 27.272 245.176 27.1316C244.99 26.8417 244.783 26.5663 244.556 26.3077C244.301 26.0362 244.025 25.7551 243.751 25.4861C243.181 24.9518 242.58 24.4507 241.952 23.9854C240.664 23.0436 239.297 22.2152 237.865 21.5094C234.936 20.0874 231.868 18.9735 228.708 18.1855C225.485 17.3593 222.244 16.6052 218.985 15.9233C213.784 14.8441 208.713 13.8757 203.828 13.0454C201.386 12.6245 198.991 12.2409 196.651 11.8799C194.313 11.5026 192.027 11.1801 189.807 10.868C187.764 10.5943 186.814 10.3242 186.977 10.1184C187.139 9.92148 188.416 9.7626 190.82 9.81043C197.843 9.94703 204.852 10.5065 211.809 11.4858C214.709 11.8746 217.626 12.4108 220.544 12.9957C223.46 13.5854 226.375 14.2381 229.261 14.9332C229.282 14.9167 229.302 14.9018 229.327 14.886Z" fill="#18191F"/>
</svg>
