<svg width="167" height="78" viewBox="0 0 167 78" fill="none" xmlns="http://www.w3.org/2000/svg">
<path d="M88.4685 20.6769C90.5439 -4.68983 126.117 1.21811 145.719 1.94554C152.094 4.40292 159.724 8.18839 163.535 13.0882C174.381 27.0322 150.559 35.6618 141.692 38.8284C120.389 46.4365 85.8017 53.2712 88.4685 20.6769Z" fill="#FFBD12"/>
<path d="M35.741 14.36C35.6797 14.912 35.603 15.4027 35.511 15.832C35.4497 16.2613 35.3117 16.6753 35.097 17.074C34.8824 17.442 34.591 17.8407 34.223 18.27C33.8857 18.6687 33.441 19.1287 32.889 19.65C31.4477 20.9993 29.853 21.7813 28.105 21.996C27.7064 22.1493 27.185 22.3333 26.541 22.548C25.897 22.732 25.1304 22.9467 24.241 23.192L24.379 26.182C24.4404 26.6113 24.4864 27.0407 24.517 27.47C24.5477 27.8993 24.563 28.3747 24.563 28.896C24.563 29.264 24.563 29.6627 24.563 30.092C24.563 30.5213 24.5017 30.92 24.379 31.288C24.287 31.656 24.0877 31.9627 23.781 32.208C23.505 32.4533 23.091 32.576 22.539 32.576C21.9564 32.576 21.527 32.4687 21.251 32.254C20.975 32.0393 20.791 31.7327 20.699 31.334C20.607 30.966 20.5457 30.5213 20.515 30C20.515 29.4787 20.469 28.9267 20.377 28.344V28.39C20.3464 27.9913 20.3157 27.516 20.285 26.964C20.2544 26.4733 20.2237 25.8753 20.193 25.17C20.1624 24.434 20.1164 23.5753 20.055 22.594V22.318C20.055 22.134 20.0397 21.8887 20.009 21.582C20.009 21.2753 19.9937 20.9533 19.963 20.616C19.9324 20.2787 19.9017 19.9873 19.871 19.742C19.871 19.466 19.871 19.282 19.871 19.19C19.871 19.006 19.871 18.684 19.871 18.224C19.9017 17.7333 19.917 17.212 19.917 16.66C19.9477 16.108 19.963 15.5867 19.963 15.096C19.9937 14.5747 20.009 14.176 20.009 13.9C20.009 13.4093 19.9784 12.9647 19.917 12.566C19.8864 12.1673 19.8404 11.7993 19.779 11.462C19.779 11.4007 19.779 11.2013 19.779 10.864C19.8097 10.5267 19.8404 10.1587 19.871 9.76C19.9017 9.33067 19.9477 8.91667 20.009 8.518C20.0704 8.08867 20.147 7.736 20.239 7.46C21.067 7.06133 22.0637 6.862 23.229 6.862H23.597C24.9157 6.46333 26.1424 6.264 27.277 6.264C27.7064 6.264 28.9177 6.448 30.911 6.816L32.935 7.92C33.487 8.25733 33.9317 8.61 34.269 8.978C34.637 9.31533 34.9284 9.72933 35.143 10.22C35.3577 10.7107 35.511 11.2933 35.603 11.968C35.695 12.612 35.741 13.4093 35.741 14.36ZM31.417 15.004C31.509 14.4213 31.555 13.9 31.555 13.44C31.555 12.612 31.2177 11.8607 30.543 11.186C29.8684 10.4807 28.7644 10.128 27.231 10.128C26.5257 10.128 25.4524 10.3733 24.011 10.864C24.0724 11.4467 24.1184 12.152 24.149 12.98C24.1797 13.7773 24.195 14.7127 24.195 15.786C24.1644 15.8473 24.149 16.154 24.149 16.706C24.149 16.982 24.149 17.3193 24.149 17.718C24.149 18.086 24.1644 18.5153 24.195 19.006C24.471 18.9753 24.7777 18.914 25.115 18.822C25.483 18.73 25.8204 18.638 26.127 18.546C26.4337 18.4233 26.6944 18.316 26.909 18.224C27.1237 18.132 27.231 18.086 27.231 18.086C29.439 17.5647 30.8344 16.5373 31.417 15.004ZM45.1904 8.334C45.2518 8.57933 45.2824 8.80933 45.2824 9.024C45.2824 10.0053 44.9911 10.8333 44.4084 11.508C43.4884 11.876 42.5684 12.06 41.6484 12.06C41.0658 11.692 40.5751 11.278 40.1764 10.818C39.8084 10.3273 39.6244 9.852 39.6244 9.392C39.6244 8.99333 40.0844 8.012 41.0044 6.448C41.4031 6.50933 41.8171 6.55533 42.2464 6.586C42.7064 6.61667 43.1204 6.69333 43.4884 6.816C43.8871 6.93867 44.2244 7.12267 44.5004 7.368C44.8071 7.58267 45.0371 7.90467 45.1904 8.334ZM43.7184 16.016V16.614C43.7184 16.7673 43.7184 16.936 43.7184 17.12C43.7184 17.304 43.6878 17.4727 43.6264 17.626L43.2584 19.696V20.11C43.2584 20.294 43.2431 20.5393 43.2124 20.846C43.1818 21.1527 43.1358 21.4593 43.0744 21.766C43.0438 22.0727 43.0131 22.364 42.9824 22.64C42.9518 22.916 42.9364 23.146 42.9364 23.33C42.9364 23.4833 42.9364 23.606 42.9364 23.698C42.9671 23.79 42.9824 23.9127 42.9824 24.066C42.9824 24.342 42.9518 24.6487 42.8904 24.986C42.8291 25.2927 42.7984 25.6453 42.7984 26.044C42.7984 26.412 42.8444 26.7953 42.9364 27.194C42.5991 28.574 41.8938 29.264 40.8204 29.264C39.3178 29.264 38.5664 27.8533 38.5664 25.032C38.5664 24.0813 38.6124 23.146 38.7044 22.226C38.7964 21.2753 38.9038 20.4013 39.0264 19.604C39.1491 18.8067 39.2718 18.1167 39.3944 17.534C39.5478 16.9207 39.6704 16.4453 39.7624 16.108C40.2224 15.4333 40.8664 15.096 41.6944 15.096C42.4918 15.096 43.1664 15.4027 43.7184 16.016ZM63.4798 25.584C62.8971 26.8107 61.9464 27.792 60.6278 28.528C59.3091 29.2333 57.8371 29.586 56.2118 29.586C55.9971 29.586 55.6444 29.5553 55.1538 29.494C54.6631 29.4327 54.1111 29.31 53.4978 29.126C52.9151 28.942 52.3018 28.6967 51.6578 28.39C51.0444 28.0527 50.4771 27.6233 49.9558 27.102C49.4344 26.55 49.0051 25.8907 48.6678 25.124C48.3304 24.3573 48.1618 23.4527 48.1618 22.41C48.1311 21.03 48.3151 19.7727 48.7138 18.638C49.1431 17.5033 49.8178 16.3533 50.7378 15.188L52.2098 13.302C53.9271 12.1367 55.8591 11.554 58.0058 11.554C59.1711 11.554 60.0911 11.7687 60.7658 12.198C61.4711 12.6273 61.8238 13.2407 61.8238 14.038C61.8238 14.6513 61.5938 15.1573 61.1338 15.556C60.7044 15.924 60.1371 16.108 59.4318 16.108C59.4011 16.108 59.2784 16.0927 59.0638 16.062C58.8798 16.0007 58.6651 15.9393 58.4198 15.878C58.1744 15.8167 57.9291 15.7707 57.6838 15.74C57.4384 15.6787 57.2391 15.648 57.0858 15.648C56.3804 15.648 55.5678 16.016 54.6478 16.752C53.7584 17.488 53.0531 18.6533 52.5318 20.248C52.3171 20.9227 52.2098 21.4747 52.2098 21.904C52.2098 22.7627 52.4398 23.4373 52.8998 23.928C53.3904 24.4187 53.9271 24.802 54.5098 25.078C55.0924 25.3233 55.6291 25.492 56.1198 25.584C56.6104 25.6453 56.8711 25.676 56.9018 25.676C57.3311 25.676 57.7604 25.5533 58.1898 25.308C58.6191 25.0627 59.0024 24.7867 59.3398 24.48C59.7078 24.1733 59.9991 23.9127 60.2138 23.698C60.4284 23.4527 60.5204 23.33 60.4898 23.33C60.7964 23.054 61.1491 22.916 61.5478 22.916C62.0384 22.916 62.4831 23.1767 62.8818 23.698C63.3111 24.1887 63.5258 24.6947 63.5258 25.216C63.5258 25.3693 63.5104 25.492 63.4798 25.584ZM79.7526 25.998C79.7833 26.1207 79.7986 26.228 79.7986 26.32C79.8293 26.412 79.8446 26.5193 79.8446 26.642C79.8446 27.286 79.6453 27.8073 79.2466 28.206C78.8479 28.6047 78.3879 28.804 77.8666 28.804C77.4066 28.804 76.9926 28.6047 76.6246 28.206C76.2566 27.8073 75.8579 27.3013 75.4286 26.688C75.0299 26.0747 74.5699 25.4 74.0486 24.664C73.5273 23.928 72.8833 23.2227 72.1166 22.548C71.9939 22.4253 71.7639 22.2567 71.4266 22.042C71.0893 21.7967 70.6599 21.49 70.1386 21.122L69.8626 21.26C69.8013 21.4747 69.7553 21.7353 69.7246 22.042C69.6326 22.5633 69.5866 23.2533 69.5866 24.112C69.5866 24.3573 69.6173 24.6333 69.6786 24.94C69.6786 25.0013 69.6633 25.0627 69.6326 25.124C69.6326 25.1853 69.6326 25.262 69.6326 25.354C69.6326 25.63 69.6326 25.998 69.6326 26.458C69.6633 26.8873 69.6939 27.3167 69.7246 27.746C69.7553 28.1447 69.7706 28.4973 69.7706 28.804C69.8013 29.1107 69.8166 29.2487 69.8166 29.218C69.8166 29.7393 69.5866 30.138 69.1266 30.414C68.6666 30.69 68.1606 30.828 67.6086 30.828C66.8113 30.828 66.2746 30.4447 65.9986 29.678C65.7533 28.9113 65.6306 27.608 65.6306 25.768C65.6306 24.5413 65.6766 23.4373 65.7686 22.456C65.8606 21.444 65.9066 20.5547 65.9066 19.788V19.006C65.9066 18.8527 65.9219 18.592 65.9526 18.224C66.0139 17.856 66.0599 17.442 66.0906 16.982C66.1519 16.522 66.1979 16.062 66.2286 15.602C66.2899 15.1113 66.3206 14.6973 66.3206 14.36V13.854C66.3513 13.762 66.3973 13.348 66.4586 12.612C66.5199 11.876 66.6273 11.0327 66.7806 10.082C66.9339 9.10067 67.1179 8.104 67.3326 7.092C67.5779 6.04933 67.8693 5.17533 68.2066 4.47C68.4213 4.01 68.8966 3.78 69.6326 3.78C71.0126 3.78 71.7026 4.31666 71.7026 5.39C71.7026 5.63533 71.6413 6.09533 71.5186 6.77C71.3959 7.44467 71.2579 8.18067 71.1046 8.978C70.9819 9.74467 70.8593 10.496 70.7366 11.232C70.6446 11.968 70.5986 12.52 70.5986 12.888C70.5373 12.98 70.3993 14.13 70.1846 16.338C70.6446 16.0313 71.0586 15.7247 71.4266 15.418C71.8253 15.0807 72.2393 14.7433 72.6686 14.406C73.0979 14.0687 73.6039 13.716 74.1866 13.348C74.7693 12.9493 75.4899 12.5047 76.3486 12.014C76.4099 12.014 76.4559 12.014 76.4866 12.014C76.5173 11.9833 76.5633 11.968 76.6246 11.968C77.0846 11.968 77.5446 12.1827 78.0046 12.612C78.4646 13.0413 78.6946 13.532 78.6946 14.084C78.6946 14.4213 78.6793 14.6667 78.6486 14.82C78.6179 14.9427 78.4799 15.096 78.2346 15.28C78.0199 15.464 77.6519 15.7093 77.1306 16.016C76.6093 16.3227 75.8733 16.798 74.9226 17.442C74.8613 17.5953 74.3553 17.948 73.4046 18.5C73.7726 18.8067 74.0026 19.006 74.0946 19.098C74.2173 19.19 74.3706 19.3433 74.5546 19.558C74.7386 19.742 75.0453 20.0793 75.4746 20.57C75.9346 21.03 76.7013 21.7967 77.7746 22.87C78.3573 23.6673 79.0166 24.71 79.7526 25.998ZM109.499 28.85C109.1 29.126 108.456 29.402 107.567 29.678C106.677 29.9233 105.757 30.138 104.807 30.322L102.921 29.954C102.645 29.862 102.185 29.6473 101.541 29.31C100.927 28.9727 100.299 28.4667 99.6548 27.792C99.0108 27.0867 98.4435 26.1973 97.9528 25.124C97.4621 24.02 97.2168 22.686 97.2168 21.122C97.2168 20.57 97.3395 19.926 97.5848 19.19C97.8608 18.4233 98.2595 17.718 98.7808 17.074C99.3021 16.3993 99.9461 15.832 100.713 15.372C101.51 14.912 102.43 14.682 103.473 14.682C105.558 14.682 107.444 15.3567 109.131 16.706C110.603 18.73 111.339 20.9687 111.339 23.422C111.339 25.2313 110.725 27.0407 109.499 28.85ZM107.245 22.318C107.091 21.122 106.708 20.1867 106.095 19.512C105.512 18.8067 104.761 18.454 103.841 18.454C103.227 18.454 102.645 18.7607 102.093 19.374C101.571 19.9567 101.311 20.8153 101.311 21.95C101.311 22.41 101.372 22.9007 101.495 23.422C101.617 23.9127 101.817 24.3727 102.093 24.802C102.369 25.2007 102.721 25.538 103.151 25.814C103.58 26.0593 104.101 26.182 104.715 26.182C105.696 26.182 106.371 25.8907 106.739 25.308C107.107 24.6947 107.291 23.9433 107.291 23.054C107.291 22.9313 107.275 22.824 107.245 22.732C107.245 22.6093 107.245 22.4713 107.245 22.318ZM128.905 24.894V25.262C128.905 25.446 128.905 25.7833 128.905 26.274C128.936 26.734 128.89 27.2093 128.767 27.7C128.675 28.1907 128.476 28.6353 128.169 29.034C127.862 29.402 127.402 29.586 126.789 29.586C125.593 29.586 124.888 29.1107 124.673 28.16C124.704 27.976 124.719 27.7767 124.719 27.562C124.719 27.3167 124.719 27.056 124.719 26.78C124.719 26.6573 124.719 26.2127 124.719 25.446C124.719 24.6487 124.688 23.79 124.627 22.87C124.596 21.95 124.504 21.0913 124.351 20.294C124.198 19.466 123.968 18.9447 123.661 18.73C122.956 18.2393 122.327 17.994 121.775 17.994C121.039 17.994 120.41 18.224 119.889 18.684C119.398 19.1133 118.984 19.972 118.647 21.26C118.616 21.6893 118.586 22.18 118.555 22.732C118.524 23.2533 118.478 23.8513 118.417 24.526C118.417 25.0473 118.432 25.63 118.463 26.274C118.494 26.8873 118.54 27.5927 118.601 28.39C118.601 28.9727 118.371 29.4633 117.911 29.862C117.451 30.23 116.93 30.414 116.347 30.414C115.887 30.414 115.519 30.2913 115.243 30.046C114.967 29.8007 114.752 29.4787 114.599 29.08C114.476 28.6813 114.384 28.252 114.323 27.792C114.292 27.332 114.277 26.872 114.277 26.412C114.277 26.0747 114.292 25.7373 114.323 25.4C114.354 25.032 114.4 24.664 114.461 24.296L114.829 19.88L115.197 17.672C115.136 17.304 115.013 16.9053 114.829 16.476C114.645 16.0467 114.553 15.7093 114.553 15.464C114.553 14.9427 114.752 14.4673 115.151 14.038C115.58 13.6087 116.102 13.394 116.715 13.394C117.144 13.394 117.466 13.486 117.681 13.67C117.896 13.8233 118.248 14.222 118.739 14.866C119.352 14.59 119.843 14.4213 120.211 14.36C120.579 14.268 121.008 14.222 121.499 14.222C123.094 14.222 124.489 14.6053 125.685 15.372C126.912 16.108 127.678 17.35 127.985 19.098C128.077 19.742 128.154 20.2787 128.215 20.708C128.307 21.1373 128.384 21.5513 128.445 21.95C128.506 22.3487 128.568 22.778 128.629 23.238C128.69 23.6673 128.782 24.2193 128.905 24.894ZM148.438 28.16C147.457 29.1413 146.353 29.9693 145.126 30.644C143.899 31.3493 142.657 31.702 141.4 31.702C140.265 31.702 138.809 31.518 137.03 31.15C136.417 30.7513 135.803 30.276 135.19 29.724C134.577 29.1413 134.025 28.5127 133.534 27.838C133.043 27.1327 132.645 26.3813 132.338 25.584C132.031 24.756 131.878 23.9127 131.878 23.054C131.878 22.8087 131.893 22.4867 131.924 22.088C131.955 21.6587 131.985 21.2447 132.016 20.846C132.077 20.4167 132.123 20.0487 132.154 19.742C132.185 19.4353 132.2 19.282 132.2 19.282C132.813 18.3007 133.457 17.3347 134.132 16.384C134.837 15.4027 135.819 14.544 137.076 13.808C139.069 13.3787 140.511 13.164 141.4 13.164C141.86 13.164 142.259 13.1947 142.596 13.256C142.933 13.2867 143.255 13.3787 143.562 13.532C143.899 13.6547 144.221 13.854 144.528 14.13C144.865 14.406 145.249 14.7587 145.678 15.188C146.169 15.7093 146.552 16.062 146.828 16.246C147.135 16.43 147.288 16.5987 147.288 16.752C147.288 19.5733 146.414 21.49 144.666 22.502C143.899 22.778 142.903 23.0847 141.676 23.422C140.449 23.7287 138.778 24.02 136.662 24.296C137.091 25.4613 137.659 26.3353 138.364 26.918C139.069 27.5007 139.867 27.792 140.756 27.792C142.075 27.792 143.731 27.01 145.724 25.446C146.031 25.17 146.414 25.032 146.874 25.032C147.365 25.032 147.794 25.216 148.162 25.584C148.561 25.952 148.76 26.412 148.76 26.964C148.76 27.3627 148.653 27.7613 148.438 28.16ZM143.24 18.316C142.657 17.3653 141.967 16.89 141.17 16.89C140.833 16.89 140.465 16.936 140.066 17.028C139.667 17.12 139.253 17.258 138.824 17.442C138.425 17.5953 138.042 17.7947 137.674 18.04C137.337 18.2853 137.061 18.5767 136.846 18.914L136.386 20.294C137.429 20.202 138.349 20.1253 139.146 20.064C139.943 20.0027 140.633 19.9107 141.216 19.788C141.799 19.6653 142.259 19.4967 142.596 19.282C142.933 19.0673 143.148 18.7453 143.24 18.316ZM14.8127 49.658C15.15 49.934 15.3187 50.44 15.3187 51.176C15.3187 52.5253 14.8127 53.2 13.8007 53.2H13.6167C13.1567 53.2307 12.62 53.2767 12.0067 53.338C11.3933 53.3687 10.7033 53.43 9.93666 53.522C9.87532 54.0127 9.81399 54.672 9.75266 55.5C9.69132 56.2973 9.66066 57.2633 9.66066 58.398C9.66066 58.49 9.66066 58.582 9.66066 58.674C9.69132 58.766 9.70666 58.8733 9.70666 58.996V61.112C9.70666 61.6027 9.78332 62.0013 9.93666 62.308C10.1207 62.584 10.3353 62.7833 10.5807 62.906L11.8687 63.32C12.8807 63.6573 13.3867 64.2707 13.3867 65.16C13.3867 65.6813 13.172 66.1413 12.7427 66.54C12.344 66.9387 11.8227 67.138 11.1787 67.138C10.9947 67.138 10.6727 67.092 10.2127 67C9.78332 66.8773 9.32332 66.724 8.83265 66.54C8.37265 66.356 7.92799 66.126 7.49865 65.85C7.09999 65.574 6.82399 65.2673 6.67066 64.93C6.33332 64.2247 6.05732 63.4887 5.84265 62.722C5.62799 61.9247 5.52065 61.0967 5.52065 60.238C5.52065 59.2873 5.53599 58.6127 5.56666 58.214C5.59732 57.8153 5.62799 57.4627 5.65865 57.156C5.68932 56.8493 5.71999 56.4813 5.75066 56.052C5.78132 55.6227 5.79665 54.9173 5.79665 53.936C5.21399 53.9973 4.35532 54.1813 3.22065 54.488C2.54599 54.488 1.96332 54.3193 1.47265 53.982C1.01265 53.614 0.782655 53.1387 0.782655 52.556C0.782655 52.1267 0.905321 51.728 1.15065 51.36C1.42665 50.992 1.97865 50.67 2.80665 50.394C3.08265 50.302 3.32799 50.2407 3.54265 50.21C3.78799 50.1793 4.01799 50.1487 4.23265 50.118C4.47799 50.0873 4.73865 50.072 5.01465 50.072C5.29066 50.0413 5.62799 49.9953 6.02665 49.934C6.05732 49.1673 6.10332 48.3087 6.16465 47.358C6.25666 46.3767 6.39466 45.472 6.57866 44.644C6.79332 43.816 7.08465 43.126 7.45265 42.574C7.85132 41.9913 8.37266 41.7 9.01666 41.7C10.1207 41.7 10.7953 42.206 11.0407 43.218C11.0407 43.2487 10.9947 43.4633 10.9027 43.862C10.8413 44.23 10.7647 44.644 10.6727 45.104C10.5807 45.564 10.4887 46.0087 10.3967 46.438C10.3353 46.8673 10.3047 47.1433 10.3047 47.266L10.1667 49.52C10.3813 49.4893 10.5807 49.474 10.7647 49.474C10.9487 49.4433 11.148 49.428 11.3627 49.428H11.7767C11.9913 49.428 12.1907 49.428 12.3747 49.428C12.5587 49.3973 12.7273 49.382 12.8807 49.382C13.8007 49.382 14.4447 49.474 14.8127 49.658ZM27.9539 65.85C27.5553 66.126 26.9113 66.402 26.0219 66.678C25.1326 66.9233 24.2126 67.138 23.2619 67.322L21.3759 66.954C21.0999 66.862 20.6399 66.6473 19.9959 66.31C19.3826 65.9727 18.7539 65.4667 18.1099 64.792C17.4659 64.0867 16.8986 63.1973 16.4079 62.124C15.9173 61.02 15.6719 59.686 15.6719 58.122C15.6719 57.57 15.7946 56.926 16.0399 56.19C16.3159 55.4233 16.7146 54.718 17.2359 54.074C17.7573 53.3993 18.4013 52.832 19.1679 52.372C19.9653 51.912 20.8853 51.682 21.9279 51.682C24.0133 51.682 25.8993 52.3567 27.5859 53.706C29.0579 55.73 29.7939 57.9687 29.7939 60.422C29.7939 62.2313 29.1806 64.0407 27.9539 65.85ZM25.6999 59.318C25.5466 58.122 25.1633 57.1867 24.5499 56.512C23.9673 55.8067 23.2159 55.454 22.2959 55.454C21.6826 55.454 21.0999 55.7607 20.5479 56.374C20.0266 56.9567 19.7659 57.8153 19.7659 58.95C19.7659 59.41 19.8273 59.9007 19.9499 60.422C20.0726 60.9127 20.2719 61.3727 20.5479 61.802C20.8239 62.2007 21.1766 62.538 21.6059 62.814C22.0353 63.0593 22.5566 63.182 23.1699 63.182C24.1513 63.182 24.8259 62.8907 25.1939 62.308C25.5619 61.6947 25.7459 60.9433 25.7459 60.054C25.7459 59.9313 25.7306 59.824 25.6999 59.732C25.6999 59.6093 25.6999 59.4713 25.6999 59.318ZM64.8366 51.728C64.9286 52.1573 64.9746 52.694 64.9746 53.338C64.9746 53.8593 64.9439 54.4727 64.8826 55.178C64.8212 55.8527 64.7292 56.604 64.6066 57.432C64.6372 57.524 64.6526 57.6313 64.6526 57.754C64.6526 57.8767 64.6526 58.0147 64.6526 58.168C64.6526 58.5053 64.6219 58.904 64.5606 59.364C64.5299 59.7933 64.4839 60.2993 64.4226 60.882C64.4532 61.0353 64.4686 61.1887 64.4686 61.342C64.4686 61.4953 64.4686 61.6793 64.4686 61.894C64.4686 62.5993 64.4226 63.4733 64.3306 64.516C64.2386 65.5587 64.1159 66.8007 63.9626 68.242C63.5332 71.7993 62.0766 74.3907 59.5926 76.016C58.7032 76.3533 57.8139 76.5987 56.9246 76.752C56.0659 76.936 55.1919 77.028 54.3026 77.028C53.1372 77.028 51.3126 76.522 48.8286 75.51L46.5286 73.578C46.0686 73.21 45.7466 72.9187 45.5626 72.704C45.4092 72.4893 45.3326 72.2287 45.3326 71.922C45.3326 71.278 45.5166 70.7107 45.8846 70.22C46.2526 69.76 46.7432 69.53 47.3566 69.53C47.7552 69.53 48.1999 69.6527 48.6906 69.898L50.9906 71.83C52.0946 72.566 53.3366 72.9493 54.7166 72.98C54.8699 73.0107 55.0692 72.98 55.3146 72.888C55.5599 72.8267 55.8512 72.75 56.1886 72.658L57.7066 72.244C58.8106 71.5387 59.5312 70.2353 59.8686 68.334C59.8992 68.058 59.9299 67.7207 59.9606 67.322C60.0219 66.586 60.1139 65.5433 60.2366 64.194C60.1139 64.2553 59.8379 64.378 59.4086 64.562C58.9792 64.7153 58.4426 64.8993 57.7986 65.114C57.1852 65.298 56.4646 65.4667 55.6366 65.62C54.8392 65.7733 53.9959 65.85 53.1066 65.85C52.9532 65.85 52.7846 65.8193 52.6006 65.758C52.4472 65.666 52.2326 65.528 51.9566 65.344C51.6806 65.16 51.3432 64.9147 50.9446 64.608C50.5766 64.3013 50.1166 63.9027 49.5646 63.412L48.4606 61.342C48.1846 60.8207 47.9852 60.2993 47.8626 59.778C47.7706 59.226 47.7246 58.6893 47.7246 58.168C47.7246 57.3093 48.0466 56.4507 48.6906 55.592C49.3652 54.7027 50.1932 53.9053 51.1746 53.2C52.1866 52.4947 53.2752 51.9273 54.4406 51.498C55.6059 51.038 56.6792 50.808 57.6606 50.808C58.1206 50.808 58.5652 50.8387 58.9946 50.9C59.4546 50.9613 60.1446 51.13 61.0646 51.406L61.2946 50.854C61.6932 50.578 62.1839 50.44 62.7666 50.44C63.9319 50.44 64.6219 50.8693 64.8366 51.728ZM60.4666 55.592C60.1599 55.3773 59.8072 55.224 59.4086 55.132C59.0406 55.04 58.6726 54.948 58.3046 54.856C57.9059 54.9173 57.4459 55.0093 56.9246 55.132C56.4032 55.224 55.8206 55.3467 55.1766 55.5C53.1526 56.6653 52.1406 57.7233 52.1406 58.674C52.1406 59.1953 52.3246 59.7167 52.6926 60.238C53.0606 60.7287 53.5819 61.2347 54.2566 61.756C54.7166 61.7253 55.2072 61.6793 55.7286 61.618C56.2499 61.526 56.7712 61.388 57.2926 61.204C57.8139 61.02 58.3199 60.7593 58.8106 60.422C59.3012 60.054 59.7766 59.5633 60.2366 58.95C60.2979 58.4287 60.3439 57.938 60.3746 57.478C60.4359 57.018 60.4666 56.5733 60.4666 56.144V55.592ZM80.1963 65.85C79.7976 66.126 79.1536 66.402 78.2643 66.678C77.3749 66.9233 76.4549 67.138 75.5043 67.322L73.6183 66.954C73.3423 66.862 72.8823 66.6473 72.2383 66.31C71.6249 65.9727 70.9963 65.4667 70.3523 64.792C69.7083 64.0867 69.1409 63.1973 68.6503 62.124C68.1596 61.02 67.9143 59.686 67.9143 58.122C67.9143 57.57 68.0369 56.926 68.2823 56.19C68.5583 55.4233 68.9569 54.718 69.4783 54.074C69.9996 53.3993 70.6436 52.832 71.4103 52.372C72.2076 51.912 73.1276 51.682 74.1703 51.682C76.2556 51.682 78.1416 52.3567 79.8283 53.706C81.3003 55.73 82.0363 57.9687 82.0363 60.422C82.0363 62.2313 81.4229 64.0407 80.1963 65.85ZM77.9423 59.318C77.7889 58.122 77.4056 57.1867 76.7923 56.512C76.2096 55.8067 75.4583 55.454 74.5383 55.454C73.9249 55.454 73.3423 55.7607 72.7903 56.374C72.2689 56.9567 72.0083 57.8153 72.0083 58.95C72.0083 59.41 72.0696 59.9007 72.1923 60.422C72.3149 60.9127 72.5143 61.3727 72.7903 61.802C73.0663 62.2007 73.4189 62.538 73.8483 62.814C74.2776 63.0593 74.7989 63.182 75.4123 63.182C76.3936 63.182 77.0683 62.8907 77.4363 62.308C77.8043 61.6947 77.9883 60.9433 77.9883 60.054C77.9883 59.9313 77.9729 59.824 77.9423 59.732C77.9423 59.6093 77.9423 59.4713 77.9423 59.318ZM111.237 52.694L108.753 52.924C108.63 52.924 108.492 52.9393 108.339 52.97C108.186 53.0007 108.002 53.0313 107.787 53.062C107.603 53.0927 107.388 53.1233 107.143 53.154L107.511 57.34C107.542 57.7387 107.572 58.2293 107.603 58.812C107.664 59.3947 107.756 60.0847 107.879 60.882C107.848 61.1273 107.818 61.3727 107.787 61.618C107.787 61.8633 107.787 62.1393 107.787 62.446C107.787 62.906 107.802 63.412 107.833 63.964C107.864 64.516 107.91 65.114 107.971 65.758C107.419 66.678 106.637 67.138 105.625 67.138C104.705 67.138 104.061 66.6933 103.693 65.804C103.693 65.5587 103.693 65.2673 103.693 64.93C103.724 64.562 103.739 64.1633 103.739 63.734C103.739 63.3047 103.724 62.8447 103.693 62.354C103.693 61.8327 103.693 61.2653 103.693 60.652V60.422C103.693 59.9313 103.662 59.5633 103.601 59.318C103.57 59.0727 103.524 58.766 103.463 58.398C103.402 57.9993 103.325 57.4473 103.233 56.742C103.141 56.0367 103.049 54.9633 102.957 53.522L101.255 53.844C101.163 53.844 101.071 53.844 100.979 53.844C100.918 53.8133 100.856 53.798 100.795 53.798C100.642 53.798 100.504 53.8133 100.381 53.844C100.258 53.844 100.151 53.844 100.059 53.844C99.9363 53.8747 99.8289 53.89 99.7369 53.89C98.7556 53.6447 98.2649 52.9393 98.2649 51.774C98.2649 51.314 98.3109 50.9613 98.4029 50.716C98.4949 50.4707 98.6943 50.2867 99.0009 50.164C99.3076 50.0413 99.7523 49.9493 100.335 49.888C100.948 49.796 101.746 49.6733 102.727 49.52C102.696 48.9987 102.635 48.4007 102.543 47.726C102.482 47.0207 102.451 46.2693 102.451 45.472C102.451 44.2453 103.003 42.6353 104.107 40.642C104.414 40.4887 104.705 40.3353 104.981 40.182C105.288 40.0287 105.64 39.8907 106.039 39.768C106.468 39.6147 106.959 39.4767 107.511 39.354C108.094 39.2007 108.814 39.0627 109.673 38.94H109.857C110.378 38.94 110.777 39.1393 111.053 39.538C111.36 39.9367 111.513 40.3967 111.513 40.918C111.513 41.5007 111.375 41.9453 111.099 42.252C110.854 42.528 110.532 42.758 110.133 42.942C109.734 43.0953 109.29 43.2333 108.799 43.356C108.339 43.448 107.91 43.586 107.511 43.77C107.143 43.8927 106.913 44.1227 106.821 44.46C106.76 44.7973 106.714 45.1347 106.683 45.472C106.683 45.5333 106.698 45.794 106.729 46.254C106.76 46.6833 106.775 47.0667 106.775 47.404C106.775 47.496 106.76 47.588 106.729 47.68C106.729 47.7413 106.729 47.8027 106.729 47.864C106.729 47.9867 106.729 48.1553 106.729 48.37C106.76 48.554 106.79 48.8147 106.821 49.152L108.937 48.876C109.152 48.8453 109.351 48.83 109.535 48.83C109.75 48.83 109.934 48.83 110.087 48.83C110.854 48.83 111.406 48.968 111.743 49.244C112.111 49.52 112.295 49.9953 112.295 50.67C112.295 51.7433 111.942 52.418 111.237 52.694ZM121.061 45.334C121.122 45.5793 121.153 45.8093 121.153 46.024C121.153 47.0053 120.861 47.8333 120.279 48.508C119.359 48.876 118.439 49.06 117.519 49.06C116.936 48.692 116.445 48.278 116.047 47.818C115.679 47.3273 115.495 46.852 115.495 46.392C115.495 45.9933 115.955 45.012 116.875 43.448C117.273 43.5093 117.687 43.5553 118.117 43.586C118.577 43.6167 118.991 43.6933 119.359 43.816C119.757 43.9387 120.095 44.1227 120.371 44.368C120.677 44.5827 120.907 44.9047 121.061 45.334ZM119.589 53.016V53.614C119.589 53.7673 119.589 53.936 119.589 54.12C119.589 54.304 119.558 54.4727 119.497 54.626L119.129 56.696V57.11C119.129 57.294 119.113 57.5393 119.083 57.846C119.052 58.1527 119.006 58.4593 118.945 58.766C118.914 59.0727 118.883 59.364 118.853 59.64C118.822 59.916 118.807 60.146 118.807 60.33C118.807 60.4833 118.807 60.606 118.807 60.698C118.837 60.79 118.853 60.9127 118.853 61.066C118.853 61.342 118.822 61.6487 118.761 61.986C118.699 62.2927 118.669 62.6453 118.669 63.044C118.669 63.412 118.715 63.7953 118.807 64.194C118.469 65.574 117.764 66.264 116.691 66.264C115.188 66.264 114.437 64.8533 114.437 62.032C114.437 61.0813 114.483 60.146 114.575 59.226C114.667 58.2753 114.774 57.4013 114.897 56.604C115.019 55.8067 115.142 55.1167 115.265 54.534C115.418 53.9207 115.541 53.4453 115.633 53.108C116.093 52.4333 116.737 52.096 117.565 52.096C118.362 52.096 119.037 52.4027 119.589 53.016ZM137.096 51.36C137.587 51.6667 137.832 52.2493 137.832 53.108C137.832 53.752 137.663 54.304 137.326 54.764C136.989 55.224 136.529 55.454 135.946 55.454C135.578 55.454 135.195 55.362 134.796 55.178C134.428 54.9633 134.029 54.856 133.6 54.856C133.232 54.856 132.864 54.9327 132.496 55.086C132.159 55.2087 131.76 55.5 131.3 55.96L129.92 57.34C129.92 57.5547 129.92 57.7693 129.92 57.984C129.951 58.1987 129.966 58.4287 129.966 58.674C129.966 59.042 129.951 59.4253 129.92 59.824C129.92 60.2227 129.905 60.652 129.874 61.112L130.288 65.298C130.196 66.7087 129.475 67.414 128.126 67.414C127.421 67.414 126.899 67.1993 126.562 66.77C126.225 66.31 125.995 65.6813 125.872 64.884C125.749 64.0867 125.688 63.1513 125.688 62.078C125.719 61.0047 125.719 59.824 125.688 58.536C125.627 56.604 125.581 55.638 125.55 55.638V55.684C125.427 55.224 125.335 54.8253 125.274 54.488C125.213 54.12 125.182 53.798 125.182 53.522C125.182 52.97 125.381 52.5253 125.78 52.188C126.179 51.82 126.761 51.636 127.528 51.636C128.019 51.636 128.601 52.0193 129.276 52.786C129.981 52.234 130.518 51.82 130.886 51.544C131.285 51.268 131.607 51.0687 131.852 50.946C132.128 50.8233 132.389 50.762 132.634 50.762C132.879 50.7313 133.201 50.716 133.6 50.716C133.937 50.6853 134.244 50.7007 134.52 50.762C134.827 50.8233 135.149 50.8847 135.486 50.946L137.096 51.36ZM151.211 61.71C151.119 62.6607 150.797 63.5347 150.245 64.332C149.723 65.0987 149.187 65.8807 148.635 66.678C148.297 66.954 147.807 67.184 147.163 67.368C146.549 67.5827 145.936 67.7513 145.323 67.874C144.709 67.9967 144.173 68.0887 143.713 68.15C143.283 68.2113 143.099 68.242 143.161 68.242C142.854 68.242 142.455 68.1807 141.965 68.058C141.505 67.966 141.045 67.8587 140.585 67.736C140.155 67.644 139.787 67.5367 139.481 67.414C139.205 67.322 139.082 67.276 139.113 67.276C138.837 67.2453 138.484 67.1533 138.055 67C137.625 66.816 137.211 66.6167 136.813 66.402C136.445 66.1567 136.123 65.9113 135.847 65.666C135.54 65.39 135.387 65.1293 135.387 64.884C135.387 64.6387 135.448 64.3933 135.571 64.148C135.693 63.872 135.862 63.6267 136.077 63.412C136.291 63.1667 136.506 62.9827 136.721 62.86C136.966 62.7067 137.211 62.63 137.457 62.63L140.631 63.826C141.213 64.01 141.781 64.148 142.333 64.24C142.915 64.3013 143.483 64.332 144.035 64.332C144.556 64.332 145.016 64.24 145.415 64.056C145.844 63.8413 146.166 63.596 146.381 63.32L147.071 61.94C147.009 61.388 146.779 60.9587 146.381 60.652C146.013 60.3453 145.537 60.0847 144.955 59.87C144.403 59.6553 143.805 59.456 143.161 59.272C142.517 59.088 141.919 58.8427 141.367 58.536L139.389 57.294C138.745 56.466 138.407 55.1933 138.377 53.476C138.561 52.4027 139.021 51.544 139.757 50.9C139.787 50.8693 139.987 50.7313 140.355 50.486C140.723 50.21 141.29 49.8267 142.057 49.336C142.179 49.336 142.563 49.3053 143.207 49.244C143.881 49.1827 144.801 49.0907 145.967 48.968C146.488 48.968 147.761 49.336 149.785 50.072C150.183 50.4707 150.383 51.0227 150.383 51.728C150.383 52.28 150.245 52.7553 149.969 53.154C149.723 53.522 149.355 53.706 148.865 53.706C148.343 53.706 147.761 53.5833 147.117 53.338C146.503 53.062 145.921 52.924 145.369 52.924C144.602 52.924 143.897 53.0007 143.253 53.154C142.639 53.2767 142.333 53.5833 142.333 54.074C142.333 54.7793 142.639 55.2087 143.253 55.362C147.945 56.4047 150.597 58.5207 151.211 61.71ZM165.22 49.658C165.557 49.934 165.726 50.44 165.726 51.176C165.726 52.5253 165.22 53.2 164.208 53.2H164.024C163.564 53.2307 163.027 53.2767 162.414 53.338C161.801 53.3687 161.111 53.43 160.344 53.522C160.283 54.0127 160.221 54.672 160.16 55.5C160.099 56.2973 160.068 57.2633 160.068 58.398C160.068 58.49 160.068 58.582 160.068 58.674C160.099 58.766 160.114 58.8733 160.114 58.996V61.112C160.114 61.6027 160.191 62.0013 160.344 62.308C160.528 62.584 160.743 62.7833 160.988 62.906L162.276 63.32C163.288 63.6573 163.794 64.2707 163.794 65.16C163.794 65.6813 163.579 66.1413 163.15 66.54C162.751 66.9387 162.23 67.138 161.586 67.138C161.402 67.138 161.08 67.092 160.62 67C160.191 66.8773 159.731 66.724 159.24 66.54C158.78 66.356 158.335 66.126 157.906 65.85C157.507 65.574 157.231 65.2673 157.078 64.93C156.741 64.2247 156.465 63.4887 156.25 62.722C156.035 61.9247 155.928 61.0967 155.928 60.238C155.928 59.2873 155.943 58.6127 155.974 58.214C156.005 57.8153 156.035 57.4627 156.066 57.156C156.097 56.8493 156.127 56.4813 156.158 56.052C156.189 55.6227 156.204 54.9173 156.204 53.936C155.621 53.9973 154.763 54.1813 153.628 54.488C152.953 54.488 152.371 54.3193 151.88 53.982C151.42 53.614 151.19 53.1387 151.19 52.556C151.19 52.1267 151.313 51.728 151.558 51.36C151.834 50.992 152.386 50.67 153.214 50.394C153.49 50.302 153.735 50.2407 153.95 50.21C154.195 50.1793 154.425 50.1487 154.64 50.118C154.885 50.0873 155.146 50.072 155.422 50.072C155.698 50.0413 156.035 49.9953 156.434 49.934C156.465 49.1673 156.511 48.3087 156.572 47.358C156.664 46.3767 156.802 45.472 156.986 44.644C157.201 43.816 157.492 43.126 157.86 42.574C158.259 41.9913 158.78 41.7 159.424 41.7C160.528 41.7 161.203 42.206 161.448 43.218C161.448 43.2487 161.402 43.4633 161.31 43.862C161.249 44.23 161.172 44.644 161.08 45.104C160.988 45.564 160.896 46.0087 160.804 46.438C160.743 46.8673 160.712 47.1433 160.712 47.266L160.574 49.52C160.789 49.4893 160.988 49.474 161.172 49.474C161.356 49.4433 161.555 49.428 161.77 49.428H162.184C162.399 49.428 162.598 49.428 162.782 49.428C162.966 49.3973 163.135 49.382 163.288 49.382C164.208 49.382 164.852 49.474 165.22 49.658Z" fill="black"/>
</svg>
