<svg width="322" height="337" viewBox="0 0 322 337" fill="none" xmlns="http://www.w3.org/2000/svg">
<path d="M214.39 3C214.39 77.0377 214.79 151.085 213.585 225.113C212.992 261.543 211.916 297.841 216 334" stroke="black" stroke-width="6" stroke-linecap="round"/>
<path d="M106.698 3C106.698 40.9128 106.683 78.7455 105.647 116.459C104.954 141.645 102.737 166.918 104.977 192.098C107.043 215.309 107.559 238.908 107.559 262.216C107.559 274.953 106.583 288.259 107.75 300.973C108.363 307.653 109.279 314.144 109.279 320.873C109.279 323.523 108.927 332.87 111 334" stroke="black" stroke-width="6" stroke-linecap="round"/>
<path d="M3.79492 105.324C146.743 105.324 175.041 105.324 318 105.324" stroke="black" stroke-width="6" stroke-linecap="round"/>
<path d="M4 216.795C77.1936 216.795 151.136 220.484 224.232 214.952C255.721 212.568 287.502 206.12 319 210.474" stroke="black" stroke-width="6" stroke-linecap="round"/>
</svg>
