<svg width="225" height="56" viewBox="0 0 225 56" fill="none" xmlns="http://www.w3.org/2000/svg">
<path d="M124.316 25.9883C137.762 7.60863 173.363 6.62874 197.124 6.5765C205.158 9.13439 214.695 13.0457 219.481 18.0944C233.229 32.5992 203.029 41.5759 191.789 44.8698C164.783 52.7839 110.113 45.4031 124.316 25.9883Z" fill="#88D8A6"/>
<path d="M8.06095 22.167C8.06095 18.872 16.1754 19.4264 18.1625 20.1467C23.8253 22.1995 26.3539 32.832 21.9338 37.2521C19.1528 40.0331 12.0949 39.967 8.66705 38.4979C4.61752 36.7624 2.61078 33.7157 2 29.4402" stroke="#18191F" stroke-width="4" stroke-linecap="round"/>
<path d="M6.24268 22.7731C6.24268 19.5779 7.02849 18.2309 8.66706 15.5" stroke="#18191F" stroke-width="4" stroke-linecap="round"/>
<path d="M6.59424 22.9309C8.93569 22.9309 10.9985 23.0694 13.0657 24.2064C13.495 24.4425 13.9684 24.7609 14.36 24.9567" stroke="#18191F" stroke-width="4" stroke-linecap="round"/>
<path d="M55.2368 30.112C55.2075 30.992 55.1781 31.696 55.1488 32.224C55.1195 32.7227 55.0755 33.148 55.0168 33.5C54.9875 33.8227 54.9141 34.116 54.7968 34.38C54.7088 34.644 54.5768 34.9667 54.4008 35.348C53.7848 36.756 52.8315 37.8413 51.5408 38.604C50.2501 39.3667 48.6075 39.748 46.6128 39.748C45.9088 39.748 45.3515 39.748 44.9408 39.748C44.5301 39.748 44.0755 39.6747 43.5768 39.528C43.1075 39.3813 42.5061 39.132 41.7728 38.78C41.0395 38.3987 39.9981 37.856 38.6488 37.152C37.5928 36.5947 37.0648 35.8907 37.0648 35.04C37.0648 34.512 37.2408 34.0427 37.5928 33.632C37.9448 33.192 38.3995 32.9427 38.9568 32.884C41.0688 33.5587 42.5208 34.2627 43.3128 34.996C44.3688 35.4653 45.6448 35.7 47.1408 35.7C48.4021 35.7 49.4141 35.3333 50.1768 34.6C50.2941 34.2773 50.4115 33.8227 50.5288 33.236C50.6755 32.6493 50.7488 31.9453 50.7488 31.124C50.7488 30.4787 50.5581 29.9507 50.1768 29.54C49.7955 29.1 49.3115 28.7187 48.7248 28.396C48.1381 28.0733 47.4781 27.78 46.7448 27.516C46.0408 27.252 45.3661 26.9733 44.7208 26.68C44.2221 26.4747 43.7235 26.24 43.2248 25.976C42.7261 25.712 42.2275 25.3747 41.7288 24.964C40.4675 22.8227 39.8368 21.312 39.8368 20.432C39.8368 18.232 41.1421 16.1347 43.7528 14.14C46.1875 13.2307 47.8448 12.776 48.7248 12.776C49.0475 12.776 49.4728 12.8933 50.0008 13.128C50.5288 13.3627 51.0421 13.656 51.5408 14.008C52.0688 14.36 52.5088 14.756 52.8608 15.196C53.2421 15.6067 53.4328 16.0173 53.4328 16.428C53.4328 16.9267 53.2275 17.3667 52.8168 17.748C52.4355 18.1 51.9368 18.276 51.3208 18.276C51.2621 18.276 51.1008 18.188 50.8368 18.012C50.5728 17.836 50.2501 17.6453 49.8688 17.44C49.5168 17.2347 49.1501 17.044 48.7688 16.868C48.4168 16.692 48.1235 16.604 47.8888 16.604C47.3901 16.604 46.9061 16.7213 46.4368 16.956C45.9968 17.1907 45.6008 17.484 45.2488 17.836C44.8968 18.188 44.6181 18.584 44.4128 19.024C44.2075 19.4347 44.1048 19.816 44.1048 20.168C44.1048 20.8427 44.3101 21.444 44.7208 21.972C45.1315 22.5 45.6301 22.9253 46.2168 23.248L48.9888 24.216C49.6928 24.48 50.3821 24.8173 51.0568 25.228C51.7315 25.6387 52.3475 26.108 52.9048 26.636C53.4621 27.1347 53.9461 27.692 54.3568 28.308C54.7675 28.8947 55.0608 29.496 55.2368 30.112ZM70.8434 22.412C71.1661 22.676 71.3274 23.16 71.3274 23.864C71.3274 25.1547 70.8434 25.8 69.8754 25.8H69.6994C69.2594 25.8293 68.7461 25.8733 68.1594 25.932C67.5727 25.9613 66.9127 26.02 66.1794 26.108C66.1207 26.5773 66.0621 27.208 66.0034 28C65.9447 28.7627 65.9154 29.6867 65.9154 30.772C65.9154 30.86 65.9154 30.948 65.9154 31.036C65.9447 31.124 65.9594 31.2267 65.9594 31.344V33.368C65.9594 33.8373 66.0327 34.2187 66.1794 34.512C66.3554 34.776 66.5607 34.9667 66.7954 35.084L68.0274 35.48C68.9954 35.8027 69.4794 36.3893 69.4794 37.24C69.4794 37.7387 69.2741 38.1787 68.8634 38.56C68.4821 38.9413 67.9834 39.132 67.3674 39.132C67.1914 39.132 66.8834 39.088 66.4434 39C66.0327 38.8827 65.5927 38.736 65.1234 38.56C64.6834 38.384 64.2581 38.164 63.8474 37.9C63.4661 37.636 63.2021 37.3427 63.0554 37.02C62.7327 36.3453 62.4687 35.6413 62.2634 34.908C62.0581 34.1453 61.9554 33.3533 61.9554 32.532C61.9554 31.6227 61.9701 30.9773 61.9994 30.596C62.0287 30.2147 62.0581 29.8773 62.0874 29.584C62.1167 29.2907 62.1461 28.9387 62.1754 28.528C62.2047 28.1173 62.2194 27.4427 62.2194 26.504C61.6621 26.5627 60.8407 26.7387 59.7554 27.032C59.1101 27.032 58.5527 26.8707 58.0834 26.548C57.6434 26.196 57.4234 25.7413 57.4234 25.184C57.4234 24.7733 57.5407 24.392 57.7754 24.04C58.0394 23.688 58.5674 23.38 59.3594 23.116C59.6234 23.028 59.8581 22.9693 60.0634 22.94C60.2981 22.9107 60.5181 22.8813 60.7234 22.852C60.9581 22.8227 61.2074 22.808 61.4714 22.808C61.7354 22.7787 62.0581 22.7347 62.4394 22.676C62.4687 21.9427 62.5127 21.1213 62.5714 20.212C62.6594 19.2733 62.7914 18.408 62.9674 17.616C63.1727 16.824 63.4514 16.164 63.8034 15.636C64.1847 15.0787 64.6834 14.8 65.2994 14.8C66.3554 14.8 67.0007 15.284 67.2354 16.252C67.2354 16.2813 67.1914 16.4867 67.1034 16.868C67.0447 17.22 66.9714 17.616 66.8834 18.056C66.7954 18.496 66.7074 18.9213 66.6194 19.332C66.5607 19.7427 66.5314 20.0067 66.5314 20.124L66.3994 22.28C66.6047 22.2507 66.7954 22.236 66.9714 22.236C67.1474 22.2067 67.3381 22.192 67.5434 22.192H67.9394C68.1447 22.192 68.3354 22.192 68.5114 22.192C68.6874 22.1627 68.8487 22.148 68.9954 22.148C69.8754 22.148 70.4914 22.236 70.8434 22.412ZM89.2653 33.808C89.7933 34.16 90.0573 34.5853 90.0573 35.084C90.0573 35.348 89.984 35.6267 89.8373 35.92C89.6906 36.184 89.5 36.4333 89.2653 36.668C89.0306 36.8733 88.7813 37.0493 88.5173 37.196C88.2533 37.3427 87.9893 37.416 87.7253 37.416C87.4906 37.328 87.212 37.1813 86.8893 36.976C86.5666 36.7413 86.244 36.492 85.9213 36.228C85.5986 35.9347 85.2906 35.612 84.9973 35.26C84.7333 34.908 84.528 34.556 84.3813 34.204L84.0733 34.952C83.516 36.008 82.636 37.0053 81.4333 37.944C79.9666 38.208 79.116 38.34 78.8813 38.34C78.324 38.34 77.6493 38.252 76.8573 38.076L74.4373 36.36C73.3813 35.3627 72.8533 33.9987 72.8533 32.268C72.8533 31.652 72.9413 30.9773 73.1173 30.244C73.3226 29.4813 73.6013 28.7187 73.9533 27.956C74.3346 27.1933 74.7893 26.4453 75.3173 25.712C75.8453 24.9787 76.4613 24.3187 77.1653 23.732C78.016 23.4093 78.8373 23.1453 79.6293 22.94C80.4213 22.7053 81.0226 22.5587 81.4333 22.5C81.9906 21.884 82.6506 21.576 83.4133 21.576C83.8533 21.576 84.2346 21.796 84.5573 22.236C84.9093 22.6467 85.2026 23.1747 85.4373 23.82C85.7013 24.4653 85.9066 25.184 86.0533 25.976C86.2 26.7387 86.3026 27.472 86.3613 28.176L86.9333 30.508C87.1093 31.2413 87.388 31.872 87.7693 32.4C88.18 32.928 88.6786 33.3973 89.2653 33.808ZM82.5773 28.924C82.5186 28.8947 82.2986 27.9707 81.9173 26.152C81.7706 26.152 81.5506 26.152 81.2573 26.152C80.964 26.152 80.612 26.24 80.2013 26.416C79.82 26.5627 79.3946 26.8413 78.9253 27.252C78.4853 27.6333 78.06 28.22 77.6493 29.012C77.0333 30.156 76.7253 31.3 76.7253 32.444C77.224 33.412 78.0013 34.1747 79.0573 34.732C79.38 34.644 79.644 34.5413 79.8493 34.424C80.084 34.3067 80.2893 34.1453 80.4653 33.94C80.6413 33.7347 80.8026 33.4853 80.9493 33.192C81.1253 32.8693 81.316 32.4733 81.5213 32.004C81.9026 31.3293 82.1666 30.7427 82.3133 30.244C82.4893 29.716 82.5773 29.276 82.5773 28.924ZM104.129 24.04C104.599 24.3333 104.833 24.8907 104.833 25.712C104.833 26.328 104.672 26.856 104.349 27.296C104.027 27.736 103.587 27.956 103.029 27.956C102.677 27.956 102.311 27.868 101.929 27.692C101.577 27.4867 101.196 27.384 100.785 27.384C100.433 27.384 100.081 27.4573 99.7294 27.604C99.4067 27.7213 99.0254 28 98.5854 28.44L97.2654 29.76C97.2654 29.9653 97.2654 30.1707 97.2654 30.376C97.2947 30.5813 97.3094 30.8013 97.3094 31.036C97.3094 31.388 97.2947 31.7547 97.2654 32.136C97.2654 32.5173 97.2507 32.928 97.2214 33.368L97.6174 37.372C97.5294 38.7213 96.8401 39.396 95.5494 39.396C94.8747 39.396 94.3761 39.1907 94.0534 38.78C93.7307 38.34 93.5107 37.7387 93.3934 36.976C93.2761 36.2133 93.2174 35.3187 93.2174 34.292C93.2467 33.2653 93.2467 32.136 93.2174 30.904C93.1587 29.056 93.1147 28.132 93.0854 28.132V28.176C92.9681 27.736 92.8801 27.3547 92.8214 27.032C92.7627 26.68 92.7334 26.372 92.7334 26.108C92.7334 25.58 92.9241 25.1547 93.3054 24.832C93.6867 24.48 94.2441 24.304 94.9774 24.304C95.4467 24.304 96.0041 24.6707 96.6494 25.404C97.3241 24.876 97.8374 24.48 98.1894 24.216C98.5707 23.952 98.8787 23.7613 99.1134 23.644C99.3774 23.5267 99.6267 23.468 99.8614 23.468C100.096 23.4387 100.404 23.424 100.785 23.424C101.108 23.3947 101.401 23.4093 101.665 23.468C101.959 23.5267 102.267 23.5853 102.589 23.644L104.129 24.04ZM118.114 22.412C118.437 22.676 118.598 23.16 118.598 23.864C118.598 25.1547 118.114 25.8 117.146 25.8H116.97C116.53 25.8293 116.017 25.8733 115.43 25.932C114.844 25.9613 114.184 26.02 113.45 26.108C113.392 26.5773 113.333 27.208 113.274 28C113.216 28.7627 113.186 29.6867 113.186 30.772C113.186 30.86 113.186 30.948 113.186 31.036C113.216 31.124 113.23 31.2267 113.23 31.344V33.368C113.23 33.8373 113.304 34.2187 113.45 34.512C113.626 34.776 113.832 34.9667 114.066 35.084L115.298 35.48C116.266 35.8027 116.75 36.3893 116.75 37.24C116.75 37.7387 116.545 38.1787 116.134 38.56C115.753 38.9413 115.254 39.132 114.638 39.132C114.462 39.132 114.154 39.088 113.714 39C113.304 38.8827 112.864 38.736 112.394 38.56C111.954 38.384 111.529 38.164 111.118 37.9C110.737 37.636 110.473 37.3427 110.326 37.02C110.004 36.3453 109.74 35.6413 109.534 34.908C109.329 34.1453 109.226 33.3533 109.226 32.532C109.226 31.6227 109.241 30.9773 109.27 30.596C109.3 30.2147 109.329 29.8773 109.358 29.584C109.388 29.2907 109.417 28.9387 109.446 28.528C109.476 28.1173 109.49 27.4427 109.49 26.504C108.933 26.5627 108.112 26.7387 107.026 27.032C106.381 27.032 105.824 26.8707 105.354 26.548C104.914 26.196 104.694 25.7413 104.694 25.184C104.694 24.7733 104.812 24.392 105.046 24.04C105.31 23.688 105.838 23.38 106.63 23.116C106.894 23.028 107.129 22.9693 107.334 22.94C107.569 22.9107 107.789 22.8813 107.994 22.852C108.229 22.8227 108.478 22.808 108.742 22.808C109.006 22.7787 109.329 22.7347 109.71 22.676C109.74 21.9427 109.784 21.1213 109.842 20.212C109.93 19.2733 110.062 18.408 110.238 17.616C110.444 16.824 110.722 16.164 111.074 15.636C111.456 15.0787 111.954 14.8 112.57 14.8C113.626 14.8 114.272 15.284 114.506 16.252C114.506 16.2813 114.462 16.4867 114.374 16.868C114.316 17.22 114.242 17.616 114.154 18.056C114.066 18.496 113.978 18.9213 113.89 19.332C113.832 19.7427 113.802 20.0067 113.802 20.124L113.67 22.28C113.876 22.2507 114.066 22.236 114.242 22.236C114.418 22.2067 114.609 22.192 114.814 22.192H115.21C115.416 22.192 115.606 22.192 115.782 22.192C115.958 22.1627 116.12 22.148 116.266 22.148C117.146 22.148 117.762 22.236 118.114 22.412ZM148.721 37.9C148.339 38.164 147.723 38.428 146.873 38.692C146.022 38.9267 145.142 39.132 144.233 39.308L142.429 38.956C142.165 38.868 141.725 38.6627 141.109 38.34C140.522 38.0173 139.921 37.5333 139.305 36.888C138.689 36.2133 138.146 35.3627 137.677 34.336C137.207 33.28 136.973 32.004 136.973 30.508C136.973 29.98 137.09 29.364 137.325 28.66C137.589 27.9267 137.97 27.252 138.469 26.636C138.967 25.9907 139.583 25.448 140.317 25.008C141.079 24.568 141.959 24.348 142.957 24.348C144.951 24.348 146.755 24.9933 148.369 26.284C149.777 28.22 150.481 30.3613 150.481 32.708C150.481 34.4387 149.894 36.1693 148.721 37.9ZM146.565 31.652C146.418 30.508 146.051 29.6133 145.465 28.968C144.907 28.2933 144.189 27.956 143.309 27.956C142.722 27.956 142.165 28.2493 141.637 28.836C141.138 29.3933 140.889 30.2147 140.889 31.3C140.889 31.74 140.947 32.2093 141.065 32.708C141.182 33.1773 141.373 33.6173 141.637 34.028C141.901 34.4093 142.238 34.732 142.649 34.996C143.059 35.2307 143.558 35.348 144.145 35.348C145.083 35.348 145.729 35.0693 146.081 34.512C146.433 33.9253 146.609 33.2067 146.609 32.356C146.609 32.2387 146.594 32.136 146.565 32.048C146.565 31.9307 146.565 31.7987 146.565 31.652ZM169.395 24.172C169.307 24.8173 168.676 26.2107 167.503 28.352L166.183 31.3C165.919 31.9747 165.684 32.5467 165.479 33.016C165.274 33.4853 165.083 33.896 164.907 34.248C164.76 34.5707 164.599 34.864 164.423 35.128C164.276 35.3627 164.115 35.5973 163.939 35.832C163.792 36.184 163.587 36.5507 163.323 36.932C163.059 37.284 162.751 37.6213 162.399 37.944C162.047 38.2667 161.666 38.5307 161.255 38.736C160.844 38.9413 160.419 39.044 159.979 39.044C158.747 39.044 157.867 38.2667 157.339 36.712C157.016 36.36 156.708 35.9053 156.415 35.348C156.122 34.7907 155.858 34.248 155.623 33.72C155.418 33.192 155.242 32.7373 155.095 32.356C154.948 31.9453 154.86 31.7107 154.831 31.652C154.479 30.9187 154.303 30.0533 154.303 29.056V28.704C153.746 27.296 153.467 26.0053 153.467 24.832C153.467 24.2747 153.687 23.864 154.127 23.6C154.596 23.336 155.124 23.204 155.711 23.204C156.063 23.204 156.342 23.292 156.547 23.468C156.782 23.6147 156.958 23.8493 157.075 24.172C157.222 24.4653 157.339 24.832 157.427 25.272C157.515 25.712 157.618 26.2107 157.735 26.768C157.94 27.736 158.116 28.5427 158.263 29.188C158.439 29.8333 158.615 30.4053 158.791 30.904C158.996 31.4027 159.231 31.9013 159.495 32.4C159.759 32.8693 160.096 33.4267 160.507 34.072C161.24 33.2507 161.739 32.2827 162.003 31.168C162.208 30.7867 162.37 30.42 162.487 30.068C162.634 29.6867 162.824 29.2027 163.059 28.616C163.294 28.0293 163.631 27.2813 164.071 26.372C164.511 25.4333 165.156 24.2307 166.007 22.764C166.33 22.3533 166.726 22.148 167.195 22.148C167.723 22.148 168.222 22.3533 168.691 22.764C169.16 23.1747 169.395 23.6 169.395 24.04V24.172ZM187.662 37.24C186.723 38.1787 185.667 38.9707 184.494 39.616C183.32 40.2907 182.132 40.628 180.93 40.628C179.844 40.628 178.451 40.452 176.75 40.1C176.163 39.7187 175.576 39.264 174.99 38.736C174.403 38.1787 173.875 37.5773 173.406 36.932C172.936 36.2573 172.555 35.5387 172.262 34.776C171.968 33.984 171.822 33.1773 171.822 32.356C171.822 32.1213 171.836 31.8133 171.866 31.432C171.895 31.0213 171.924 30.6253 171.954 30.244C172.012 29.8333 172.056 29.4813 172.086 29.188C172.115 28.8947 172.13 28.748 172.13 28.748C172.716 27.8093 173.332 26.8853 173.978 25.976C174.652 25.0373 175.591 24.216 176.794 23.512C178.7 23.1013 180.079 22.896 180.93 22.896C181.37 22.896 181.751 22.9253 182.074 22.984C182.396 23.0133 182.704 23.1013 182.998 23.248C183.32 23.3653 183.628 23.556 183.922 23.82C184.244 24.084 184.611 24.4213 185.022 24.832C185.491 25.3307 185.858 25.668 186.122 25.844C186.415 26.02 186.562 26.1813 186.562 26.328C186.562 29.0267 185.726 30.86 184.054 31.828C183.32 32.092 182.367 32.3853 181.194 32.708C180.02 33.0013 178.422 33.28 176.398 33.544C176.808 34.6587 177.351 35.4947 178.026 36.052C178.7 36.6093 179.463 36.888 180.314 36.888C181.575 36.888 183.159 36.14 185.066 34.644C185.359 34.38 185.726 34.248 186.166 34.248C186.635 34.248 187.046 34.424 187.398 34.776C187.779 35.128 187.97 35.568 187.97 36.096C187.97 36.4773 187.867 36.8587 187.662 37.24ZM182.69 27.824C182.132 26.9147 181.472 26.46 180.71 26.46C180.387 26.46 180.035 26.504 179.654 26.592C179.272 26.68 178.876 26.812 178.466 26.988C178.084 27.1347 177.718 27.3253 177.366 27.56C177.043 27.7947 176.779 28.0733 176.574 28.396L176.134 29.716C177.131 29.628 178.011 29.5547 178.774 29.496C179.536 29.4373 180.196 29.3493 180.754 29.232C181.311 29.1147 181.751 28.9533 182.074 28.748C182.396 28.5427 182.602 28.2347 182.69 27.824ZM203.569 24.04C204.039 24.3333 204.273 24.8907 204.273 25.712C204.273 26.328 204.112 26.856 203.789 27.296C203.467 27.736 203.027 27.956 202.469 27.956C202.117 27.956 201.751 27.868 201.369 27.692C201.017 27.4867 200.636 27.384 200.225 27.384C199.873 27.384 199.521 27.4573 199.169 27.604C198.847 27.7213 198.465 28 198.025 28.44L196.705 29.76C196.705 29.9653 196.705 30.1707 196.705 30.376C196.735 30.5813 196.749 30.8013 196.749 31.036C196.749 31.388 196.735 31.7547 196.705 32.136C196.705 32.5173 196.691 32.928 196.661 33.368L197.057 37.372C196.969 38.7213 196.28 39.396 194.989 39.396C194.315 39.396 193.816 39.1907 193.493 38.78C193.171 38.34 192.951 37.7387 192.833 36.976C192.716 36.2133 192.657 35.3187 192.657 34.292C192.687 33.2653 192.687 32.136 192.657 30.904C192.599 29.056 192.555 28.132 192.525 28.132V28.176C192.408 27.736 192.32 27.3547 192.261 27.032C192.203 26.68 192.173 26.372 192.173 26.108C192.173 25.58 192.364 25.1547 192.745 24.832C193.127 24.48 193.684 24.304 194.417 24.304C194.887 24.304 195.444 24.6707 196.089 25.404C196.764 24.876 197.277 24.48 197.629 24.216C198.011 23.952 198.319 23.7613 198.553 23.644C198.817 23.5267 199.067 23.468 199.301 23.468C199.536 23.4387 199.844 23.424 200.225 23.424C200.548 23.3947 200.841 23.4093 201.105 23.468C201.399 23.5267 201.707 23.5853 202.029 23.644L203.569 24.04Z" fill="#18191F"/>
<path d="M210.137 15.0896C212.203 15.7637 214.221 16.6761 216.171 17.8165C218.183 18.9657 220.063 20.493 221.756 22.3527C222.186 22.8442 222.596 23.3658 222.985 23.9154L223.133 24.1204L223.286 24.367L223.587 24.8653C223.782 25.2039 223.942 25.5801 224.114 25.9407C224.722 27.4411 225.027 29.1303 224.998 30.8391C224.969 32.548 224.606 34.2165 223.947 35.6775L223.828 35.95L223.69 36.2073L223.413 36.7182C223.213 37.0417 223 37.3547 222.78 37.6526L222.427 38.0706C222.313 38.2135 222.19 38.3444 222.061 38.4623C221.822 38.6981 221.575 38.9174 221.319 39.1194C217.459 42.2313 213.247 44.3485 209.036 46.0056C206.223 47.1217 203.381 48.0176 200.546 48.8424C199.128 49.2562 197.709 49.6372 196.291 50.0361C194.871 50.424 193.447 50.783 192.025 51.1579C186.327 52.5998 180.587 53.7999 174.81 54.6516C169.026 55.5249 163.21 55.9748 157.389 55.9992C151.552 56.0235 145.72 55.4857 139.939 54.3899C139.492 54.3222 139.051 54.2045 138.606 54.1093L137.276 53.8053C136.389 53.5971 135.503 53.4105 134.615 53.1578C132.797 52.6928 131.011 52.0205 129.277 51.1481C128.388 50.6841 127.527 50.1282 126.701 49.4854C126.494 49.3216 126.286 49.158 126.085 48.9763C125.874 48.8023 125.67 48.6114 125.476 48.4046L124.867 47.7561C124.677 47.5186 124.497 47.2649 124.314 47.0178C124.13 46.771 123.961 46.5045 123.809 46.2211C123.643 45.9524 123.492 45.6679 123.357 45.3696C123.223 45.07 123.088 44.7721 122.96 44.4685L122.641 43.5154C122.259 42.2238 122.042 40.8541 122.001 39.4649C121.983 38.0793 122.137 36.6993 122.455 35.3814C122.783 34.0649 123.283 32.8379 123.933 31.7583L124.439 30.9747C124.624 30.7363 124.817 30.5072 125.007 30.2753C125.101 30.1656 125.201 30.0322 125.29 29.9433L125.558 29.6641L126.095 29.1059C126.454 28.7356 126.808 28.3577 127.171 27.994L128.271 26.9281C129.738 25.5042 131.26 24.1922 132.796 22.9171C133.575 22.3035 134.351 21.6832 135.139 21.091L136.328 20.2231L136.923 19.7894L137.526 19.3784C140.736 17.1757 144.043 15.2392 147.429 13.5798C150.809 11.9309 154.253 10.5277 157.746 9.37641C164.723 7.07128 171.834 5.66723 178.955 4.82354C183.254 4.30585 187.606 4.1026 191.855 4.01281C195.926 3.9352 198.561 4.21947 200.193 4.61398C201.382 4.90131 201.379 5.21913 200.361 5.49986C199.343 5.7806 197.311 6.01725 194.441 6.20265C190.81 6.43437 186.846 6.66307 183.102 6.97919C174.488 7.70878 165.907 9.19378 157.592 12.0995C149.292 15.0054 141.246 19.3271 134.002 25.3975C132.01 27.0844 130.046 28.9387 128.163 30.8904C127.697 31.3861 127.231 31.8806 126.767 32.3739C126.555 32.6157 126.388 32.843 126.194 33.0726C126.015 33.312 125.864 33.5852 125.695 33.8343C125.079 34.8903 124.656 36.1258 124.459 37.4416C124.313 38.4835 124.306 39.5522 124.438 40.5976L124.494 40.9875C124.508 41.1186 124.531 41.2477 124.562 41.3733L124.739 42.1304L124.979 42.8535L125.039 43.0347L125.116 43.2037L125.267 43.5428C125.318 43.6553 125.366 43.7714 125.419 43.8822L125.601 44.1932C125.714 44.4091 125.839 44.6125 125.976 44.8016L126.392 45.3652L126.859 45.8555C127.022 46.03 127.194 46.1898 127.373 46.3336C127.55 46.4944 127.739 46.6348 127.924 46.7818C128.296 47.0713 128.684 47.3316 129.077 47.5818C130.709 48.5415 132.413 49.26 134.16 49.7245C135.934 50.2496 137.777 50.5692 139.587 50.9916C140.497 51.1784 141.414 51.3101 142.327 51.472L143.698 51.7043C144.155 51.7725 144.615 51.819 145.074 51.8775L147.827 52.2098L150.587 52.4225C151.048 52.4535 151.507 52.5047 151.968 52.5196L153.35 52.5697C154.272 52.5955 155.192 52.6554 156.114 52.6562C157.958 52.651 159.801 52.6793 161.644 52.5887C172.607 52.229 183.575 50.0723 194.396 47.2703C199.222 45.9893 204.056 44.7235 208.72 42.8854C211.045 41.98 213.325 40.8764 215.546 39.5812C216.091 39.2393 216.646 38.9207 217.178 38.5489C217.446 38.3672 217.717 38.1916 217.983 38.005L218.772 37.4266C219.038 37.2389 219.296 37.0341 219.552 36.8261C219.806 36.6207 220.073 36.4137 220.316 36.21C220.528 36.0238 220.731 35.8171 220.921 35.5916C221.018 35.4834 221.111 35.3677 221.199 35.245L221.453 34.8657C222.104 33.8025 222.492 32.4923 222.563 31.1182C222.601 30.4366 222.555 29.7512 222.427 29.0897C222.412 29.0074 222.401 28.923 222.383 28.8417L222.318 28.6024C222.272 28.4447 222.242 28.2775 222.185 28.1262L222.018 27.6692C221.96 27.5184 221.894 27.3728 221.822 27.2335C221.685 26.9461 221.533 26.6729 221.365 26.4165C221.177 26.1473 220.974 25.8685 220.772 25.6018C220.351 25.0718 219.908 24.5749 219.445 24.1135C218.495 23.1795 217.487 22.3579 216.432 21.6581C214.273 20.2479 212.01 19.1431 209.681 18.3617C207.305 17.5423 204.915 16.7945 202.512 16.1183C198.678 15.0481 194.939 14.0877 191.337 13.2643C189.537 12.8468 187.771 12.4664 186.046 12.1084C184.322 11.7343 182.637 11.4145 181 11.1049C179.493 10.8335 178.793 10.5657 178.913 10.3615C179.033 10.1663 179.975 10.0087 181.747 10.0561C186.925 10.1916 192.092 10.7464 197.221 11.7177C199.359 12.1032 201.511 12.6349 203.661 13.215C205.812 13.7998 207.961 14.447 210.088 15.1364C210.104 15.1201 210.118 15.1053 210.137 15.0896Z" fill="#18191F"/>
</svg>
